<svg width="63" height="55" viewBox="0 0 63 55" fill="none" xmlns="http://www.w3.org/2000/svg">
<mask id="mask0_1_98" style="mask-type:luminance" maskUnits="userSpaceOnUse" x="0" y="0" width="63" height="55">
<path d="M62.5 0H0.5V55H62.5V0Z" fill="white"/>
</mask>
<g mask="url(#mask0_1_98)">
<path d="M57.5 33C57.5 45.306 35.1647 55 22.73 55C10.2953 55 0.5 45.306 0.5 33C0.5 20.694 3.17031 0 15.605 0C28.0397 0 57.5 20.694 57.5 33Z" fill="#FF3838" fill-opacity="0.83"/>
<mask id="mask1_1_98" style="mask-type:luminance" maskUnits="userSpaceOnUse" x="0" y="5" width="63" height="49">
<path d="M62.5 5H0.5V54H62.5V5Z" fill="white"/>
</mask>
<g mask="url(#mask1_1_98)">
<path d="M17.9525 37.5834C21.8373 37.5834 24.9866 34.4955 24.9866 30.6863C24.9866 26.8771 21.8373 23.7892 17.9525 23.7892C14.0677 23.7892 10.9184 26.8771 10.9184 30.6863C10.9184 34.4955 14.0677 37.5834 17.9525 37.5834Z" fill="#E6E6E6"/>
<path d="M16.052 40.7579L17.7823 41.8092V34.7027L15.8429 33.5243C15.6825 33.4269 15.5654 33.2739 15.5146 33.0958C15.6999 33.0611 15.8917 33.0959 16.052 33.1933L17.7823 34.2447V31.489C17.7823 30.9559 17.849 30.4248 17.9809 29.9076C18.1127 30.4248 18.1794 30.9559 18.1794 31.489V35.9868L20.7321 34.4358C20.9359 34.3119 21.1717 34.2481 21.4115 34.252C21.3083 34.4642 21.1451 34.6429 20.9412 34.7668L18.1794 36.4448V53.2512H17.7823V42.2673L15.8429 41.0889C15.6825 40.9915 15.5654 40.8385 15.5146 40.6604C15.6999 40.6257 15.8917 40.6605 16.052 40.7579Z" fill="#CCCCCC"/>
<path d="M7.53409 38.169C11.4189 38.169 14.5682 35.081 14.5682 31.2719C14.5682 27.4627 11.4189 24.3748 7.53409 24.3748C3.64927 24.3748 0.5 27.4627 0.5 31.2719C0.5 35.081 3.64927 38.169 7.53409 38.169Z" fill="#E6E6E6"/>
<path d="M9.43453 41.3435L7.70424 42.3948V35.2883L9.64368 34.1099C9.80403 34.0125 9.92119 33.8595 9.97196 33.6814C9.78668 33.6467 9.59486 33.6815 9.43452 33.7789L7.70423 34.8302V32.0745C7.70423 31.5414 7.63755 31.0103 7.50569 30.4932C7.37382 31.0103 7.30714 31.5414 7.30714 32.0745V36.5724L4.75449 35.0214C4.55067 34.8975 4.31483 34.8337 4.07507 34.8376C4.17827 35.0498 4.34151 35.2285 4.54534 35.3523L7.30716 37.0304V53.2883H7.70424V42.8529L9.64368 41.6745C9.80402 41.577 9.92119 41.4241 9.97196 41.246C9.78669 41.2113 9.59487 41.2461 9.43453 41.3435Z" fill="#CCCCCC"/>
<path d="M12.6438 28.7502C19.3324 28.7502 24.7547 23.4335 24.7547 16.8751C24.7547 10.3167 19.3324 5 12.6438 5C5.95508 5 0.532837 10.3167 0.532837 16.8751C0.532837 23.4335 5.95508 28.7502 12.6438 28.7502Z" fill="#E6E6E6"/>
<path d="M15.9159 34.2159L12.9368 36.026V23.7904L16.276 21.7614C16.5521 21.5937 16.7538 21.3304 16.8412 21.0237C16.5222 20.9639 16.1919 21.0239 15.9159 21.1916L12.9368 23.0017V18.2571C12.9368 17.3392 12.822 16.4248 12.5949 15.5344C12.3679 16.4248 12.2531 17.3392 12.2531 18.2571V26.0012L7.85801 23.3308C7.50707 23.1175 7.10103 23.0077 6.68823 23.0143C6.86591 23.3797 7.14696 23.6874 7.4979 23.9006L12.2531 26.7898V53.3144H12.9368V36.8146L16.276 34.7857C16.5521 34.618 16.7538 34.3547 16.8412 34.048C16.5222 33.9882 16.1919 34.0481 15.9159 34.2159Z" fill="#CCCCCC"/>
<path d="M47.7765 26.4245L44.9391 28.0308L46.5773 30.813L49.4147 29.2067L47.7765 26.4245Z" fill="#FF6584"/>
<path d="M47.8126 31.3928L46.102 28.4877L49.0648 26.8105L50.7754 29.7156L47.8126 31.3928ZM46.2997 28.5397L47.8656 31.1989L50.5776 29.6637L49.0118 27.0044L46.2997 28.5397Z" fill="#2F2E41"/>
<path d="M45.1582 39.1994C45.9176 39.1994 46.5331 38.5958 46.5331 37.8512C46.5331 37.1066 45.9176 36.503 45.1582 36.503C44.3988 36.503 43.7832 37.1066 43.7832 37.8512C43.7832 38.5958 44.3988 39.1994 45.1582 39.1994Z" fill="#D0CDE1"/>
<path d="M46.1713 39.2703C45.8851 39.2703 45.6052 39.1871 45.3672 39.0311C45.1292 38.8752 44.9437 38.6536 44.8341 38.3942C44.7246 38.1349 44.6959 37.8496 44.7518 37.5743C44.8076 37.299 44.9455 37.0461 45.1479 36.8477C45.3503 36.6492 45.6082 36.514 45.8889 36.4593C46.1697 36.4045 46.4607 36.4326 46.7252 36.54C46.9896 36.6474 47.2157 36.8293 47.3747 37.0627C47.5338 37.2961 47.6187 37.5705 47.6187 37.8512C47.6187 38.2275 47.4662 38.5885 47.1947 38.8547C46.9233 39.1208 46.5552 39.2703 46.1713 39.2703ZM46.1713 36.5739C45.9137 36.5739 45.6618 36.6488 45.4476 36.7892C45.2334 36.9295 45.0665 37.129 44.9679 37.3624C44.8693 37.5958 44.8435 37.8526 44.8937 38.1003C44.944 38.3481 45.0681 38.5757 45.2502 38.7543C45.4324 38.9329 45.6645 39.0546 45.9172 39.1039C46.1699 39.1531 46.4318 39.1278 46.6698 39.0312C46.9078 38.9345 47.1113 38.7708 47.2544 38.5608C47.3975 38.3507 47.4739 38.1038 47.4739 37.8512C47.4739 37.5124 47.3367 37.1875 47.0924 36.948C46.8481 36.7085 46.5168 36.5739 46.1713 36.5739Z" fill="#2F2E41"/>
<path d="M53.8322 53.574H40.5167C40.3536 53.5738 40.1973 53.5102 40.082 53.3971C39.9666 53.2841 39.9018 53.1308 39.9016 52.9708V40.8371C39.9018 40.6772 39.9666 40.5239 40.082 40.4108C40.1973 40.2977 40.3536 40.2341 40.5167 40.2339H53.8322C53.9953 40.2341 54.1516 40.2977 54.2669 40.4108C54.3823 40.5239 54.4471 40.6772 54.4473 40.8371V52.9708C54.4471 53.1308 54.3823 53.2841 54.2669 53.3971C54.1516 53.5102 53.9953 53.5738 53.8322 53.574Z" fill="#6C63FF"/>
<path d="M48.1151 54H46.2336C46.0705 53.9998 45.9141 53.9362 45.7988 53.8231C45.6835 53.7101 45.6186 53.5568 45.6185 53.3969V40.4766C45.6186 40.3167 45.6835 40.1634 45.7988 40.0503C45.9141 39.9373 46.0705 39.8737 46.2336 39.8735H48.1151C48.2782 39.8737 48.4345 39.9373 48.5499 40.0503C48.6652 40.1634 48.73 40.3167 48.7302 40.4766V53.3969C48.73 53.5568 48.6652 53.7101 48.5499 53.8231C48.4345 53.9362 48.2782 53.9998 48.1151 54Z" fill="#3F3D56"/>
<path d="M57.37 39.0328C57.2922 40.2845 55.5678 41.2 55.5678 41.2C55.5678 41.2 53.9695 40.086 54.0473 38.8343C54.125 37.5826 55.8495 36.6671 55.8495 36.6671C55.8495 36.6671 57.4478 37.7811 57.37 39.0328Z" fill="#3F3D56"/>
<path d="M57.4481 42.9383C56.1713 42.8659 55.2322 41.1779 55.2322 41.1779C55.2322 41.1779 56.3634 39.6073 57.6402 39.6797C58.917 39.752 59.856 41.44 59.856 41.44C59.856 41.44 58.7249 43.0107 57.4481 42.9383Z" fill="#3F3D56"/>
<path opacity="0.1" d="M54.4111 41.7184V46.3505L49.7123 40.2694H53.2916L54.4111 41.7184Z" fill="black"/>
<path d="M58.4001 49.6475C58.305 49.6477 58.2112 49.6263 58.126 49.5849C58.0408 49.5435 57.9666 49.4832 57.9092 49.4089L48.1198 36.74C48.071 36.6769 48.0354 36.605 48.0149 36.5283C47.9945 36.4517 47.9897 36.3719 48.0007 36.2934C48.0117 36.215 48.0384 36.1394 48.0792 36.071C48.12 36.0027 48.1742 35.9429 48.2386 35.8951L49.6806 34.8238C49.745 34.7759 49.8184 34.741 49.8965 34.721C49.9747 34.7009 50.0561 34.6962 50.1361 34.707C50.2161 34.7178 50.2932 34.744 50.3629 34.784C50.4326 34.8241 50.4936 34.8772 50.5423 34.9403L60.3317 47.6091C60.3805 47.6722 60.4161 47.7442 60.4366 47.8208C60.457 47.8974 60.4618 47.9773 60.4508 48.0557C60.4398 48.1342 60.4131 48.2097 60.3723 48.2781C60.3314 48.3464 60.2773 48.4062 60.2129 48.4541L58.7709 49.5254C58.6643 49.6048 58.534 49.6477 58.4001 49.6475Z" fill="#6C63FF"/>
<path d="M54.4817 39.8033L52.0014 41.6459L53.8806 44.0779L56.3609 42.2353L54.4817 39.8033Z" fill="#3F3D56"/>
<path d="M41.7228 30.5358L40.8748 33.6389L44.0395 34.4703L44.8875 31.3672L41.7228 30.5358Z" fill="#D0CDE1"/>
<path d="M42.697 34.9343L39.3925 34.0661L40.2779 30.8259L43.5824 31.6941L42.697 34.9343ZM39.5697 33.9657L42.5947 34.7605L43.4052 31.7944L40.3803 30.9997L39.5697 33.9657Z" fill="#2F2E41"/>
<path d="M28.7773 42.4656C28.8642 42.3839 28.9319 42.2845 28.9754 42.1744C29.019 42.0643 29.0374 41.9462 29.0293 41.8284C29.0213 41.7106 28.987 41.596 28.9289 41.4926C28.8708 41.3891 28.7902 41.2995 28.6929 41.2299L27.364 30.726L25.647 31.2266L27.5007 41.4487C27.3923 41.6166 27.3505 41.8178 27.3832 42.014C27.416 42.2102 27.521 42.3877 27.6783 42.5131C27.8357 42.6384 28.0345 42.7028 28.237 42.6941C28.4395 42.6853 28.6318 42.604 28.7773 42.4656Z" fill="#FFB8B8"/>
<path d="M30.3688 52.5053H31.3731L31.851 48.7073H30.3688V52.5053Z" fill="#FFB8B8"/>
<path d="M33.3098 53.4197H30.1537V52.2241H32.202C32.4958 52.2241 32.7776 52.3385 32.9853 52.5422C33.1931 52.7459 33.3098 53.0223 33.3098 53.3104V53.4197Z" fill="#2F2E41"/>
<path d="M23.4243 50.9717L24.3656 51.315L26.1639 47.9186L24.7747 47.4119L23.4243 50.9717Z" fill="#FFB8B8"/>
<path d="M25.8557 52.834L22.8975 51.7551L23.3227 50.6344L25.2424 51.3346C25.5178 51.435 25.7413 51.6386 25.8636 51.9006C25.9858 52.1626 25.997 52.4614 25.8946 52.7315L25.8557 52.834Z" fill="#2F2E41"/>
<path d="M28.5673 27.9993C29.616 27.9993 30.4662 27.1657 30.4662 26.1374C30.4662 25.1091 29.616 24.2756 28.5673 24.2756C27.5186 24.2756 26.6685 25.1091 26.6685 26.1374C26.6685 27.1657 27.5186 27.9993 28.5673 27.9993Z" fill="#FFB8B8"/>
<path d="M25.5973 30.9158C25.5379 29.2009 27.376 28.0112 28.9226 28.8142C29.1196 28.9165 31.1542 30.6114 31.2309 31.6639C31.3076 32.7165 31.4609 34.4456 31.4609 34.4456L33.6078 50.1587L29.0073 49.9331L29.5629 45.3494L26.5726 50.0107L22.95 48.8806L27.3971 36.3252C27.3971 36.3252 25.6874 33.5147 25.5973 30.9158Z" fill="#2F2E41"/>
<path d="M25.6336 31.5128L25.929 35.2785C25.9321 35.3178 25.9502 35.3545 25.9797 35.3813C26.0092 35.4081 26.0479 35.423 26.0881 35.423H27.388C27.4142 35.423 27.4401 35.4166 27.4633 35.4045C27.4864 35.3924 27.5062 35.3748 27.5208 35.3534C27.5353 35.3319 27.5443 35.3073 27.5469 35.2817C27.5494 35.2561 27.5455 35.2302 27.5354 35.2064L25.9402 31.4408C25.9256 31.4064 25.899 31.3782 25.8652 31.3613C25.8313 31.3444 25.7925 31.3399 25.7555 31.3486C25.7186 31.3573 25.686 31.3786 25.6637 31.4087C25.6413 31.4388 25.6306 31.4757 25.6336 31.5128Z" fill="#2F2E41"/>
<path d="M32.3087 41.8131C32.3853 41.722 32.4406 41.6156 32.4708 41.5012C32.5009 41.3869 32.505 41.2675 32.483 41.1514C32.461 41.0354 32.4132 40.9254 32.3432 40.8294C32.2731 40.7334 32.1824 40.6536 32.0775 40.5956L29.504 30.3164L27.8586 31.0106L30.9195 40.9497C30.8319 41.129 30.8144 41.3335 30.8704 41.5246C30.9263 41.7157 31.0518 41.88 31.223 41.9864C31.3942 42.0929 31.5993 42.134 31.7994 42.1021C31.9996 42.0701 32.1808 41.9673 32.3087 41.8131Z" fill="#FFB8B8"/>
<path d="M28.0872 29.4084C28.0872 29.4084 27.5505 30.461 28.0872 32.3405C28.6239 34.2201 29.0073 35.7989 29.0073 35.7989C29.0073 35.7989 30.2341 35.0471 30.7709 35.2726C31.3076 35.4982 29.9218 30.2623 29.9218 30.2623C29.9218 30.2623 29.084 28.5063 28.0872 29.4084Z" fill="#2F2E41"/>
<path d="M29.0129 26.4279C29.0385 26.0416 29.5356 26.0284 29.9304 26.0247C30.3252 26.021 30.7973 26.0349 31.0207 25.7157C31.1683 25.5047 31.1401 25.2118 31.0181 24.9857C30.8962 24.7595 30.6955 24.5855 30.4982 24.4182C29.9886 23.9861 29.4634 23.5575 28.8517 23.281C28.2399 23.0044 27.523 22.8927 26.8885 23.1147C26.1091 23.3874 25.0555 24.7911 24.9645 25.5976C24.8735 26.4041 25.2022 27.2263 25.7563 27.8289C26.3104 28.4316 27.5787 28.1884 28.3768 28.4028C27.8916 27.7295 28.2114 26.506 28.9887 26.1915L29.0129 26.4279Z" fill="#2F2E41"/>
</g>
</g>
</svg>
