<svg width="66" height="55" viewBox="0 0 66 55" fill="none" xmlns="http://www.w3.org/2000/svg">
<g clip-path="url(#clip0_1_2)">
<path d="M66 33C66 45.306 43.6647 55 31.23 55C18.7953 55 9 45.306 9 33C9 20.694 11.6703 0 24.105 0C36.5397 0 66 20.694 66 33Z" fill="#FF3838" fill-opacity="0.83"/>
<mask id="mask0_1_2" style="mask-type:luminance" maskUnits="userSpaceOnUse" x="0" y="5" width="66" height="46">
<path d="M66 5H0V51H66V5Z" fill="white"/>
</mask>
<g mask="url(#mask0_1_2)">
<path d="M39.7451 12.1203L42.0552 12.8781V9.55986H39.9588L39.7451 12.1203Z" fill="#F8A8AB"/>
<path d="M41.7692 10.4779C43.0406 10.4779 44.0713 9.44955 44.0713 8.18107C44.0713 6.9126 43.0406 5.88429 41.7692 5.88429C40.4979 5.88429 39.4672 6.9126 39.4672 8.18107C39.4672 9.44955 40.4979 10.4779 41.7692 10.4779Z" fill="#F8A8AB"/>
<path d="M41.1829 8.36107L41.5004 8.74536L42.0741 7.74277C42.0741 7.74277 42.8066 7.78057 42.8066 7.23788C42.8066 6.69518 43.4786 6.67988 43.4786 6.67988C43.4786 6.67988 44.4303 5.0221 42.4593 5.45859C42.4593 5.45859 41.0918 4.5244 40.4126 5.32269C40.4126 5.32269 38.3279 6.37029 38.9242 8.19367L39.9155 10.0738L40.1401 9.64806C40.1401 9.64806 40.0039 7.86157 41.1829 8.35927V8.36107Z" fill="#2F2E43"/>
<path d="M40.9412 46.5594H39.0523V49.2333H40.9412V46.5594Z" fill="#F8A8AB"/>
<path d="M40.7319 50.7651C40.409 50.7939 38.7925 50.9217 38.7113 50.5518C38.6374 50.2125 38.7465 49.8579 38.7618 49.8093C38.917 48.2667 38.9747 48.2496 39.0099 48.2397C39.0649 48.2235 39.2255 48.3 39.4862 48.4674L39.5024 48.4782L39.506 48.4971C39.5105 48.5214 39.626 49.0875 40.1735 49.0002C40.5488 48.9408 40.6706 48.858 40.7094 48.8175C40.6778 48.8031 40.6381 48.7779 40.6101 48.7347C40.5695 48.6717 40.5623 48.5907 40.5894 48.4935C40.6597 48.237 40.8708 47.8581 40.8798 47.8428L40.9042 47.7996L43.0511 49.245L44.3771 49.623C44.4772 49.6518 44.5575 49.7229 44.5981 49.8183C44.654 49.9515 44.6197 50.1063 44.5115 50.2035C44.2706 50.4195 43.7925 50.7894 43.2901 50.8353C43.1566 50.8479 42.9798 50.8524 42.7814 50.8524C41.9524 50.8524 40.7409 50.7669 40.7319 50.7651Z" fill="#2F2E43"/>
<path d="M43.3532 23.507L38.3983 23.2541C38.3983 23.2541 37.6388 26.1269 38.5985 29.1203L38.714 47.1462H41.514L44.1534 28.5515L43.3532 23.507Z" fill="#2F2E43"/>
<path d="M42.5179 11.4822L39.7983 10.0423C39.7983 10.0423 36.8675 14.3154 37.2726 16.6302C37.6785 18.945 38.3983 23.2541 38.3983 23.2541L44.3978 23.507L43.3505 15.021L42.5179 11.4822Z" fill="#E2E3E4"/>
<path d="M42.2852 46.5594H40.3963V49.2333H42.2852V46.5594Z" fill="#F8A8AB"/>
<path d="M42.0759 50.7651C41.753 50.7939 40.1365 50.9217 40.0553 50.5518C39.9814 50.2125 40.0905 49.8579 40.1059 49.8093C40.261 48.2667 40.3187 48.2496 40.3539 48.2397C40.4089 48.2235 40.5695 48.3 40.8302 48.4674L40.8464 48.4782L40.85 48.4971C40.8546 48.5214 40.97 49.0875 41.5176 49.0002C41.8928 48.9408 42.0146 48.858 42.0534 48.8175C42.0218 48.8031 41.9821 48.7779 41.9542 48.7347C41.9136 48.6717 41.9063 48.5907 41.9334 48.4935C42.0038 48.237 42.2148 47.8581 42.2239 47.8428L42.2482 47.7996L44.3951 49.245L45.7211 49.623C45.8212 49.6518 45.9015 49.7229 45.9421 49.8183C45.998 49.9515 45.9637 50.1063 45.8555 50.2035C45.6147 50.4195 45.1366 50.7894 44.6341 50.8353C44.5006 50.8479 44.3238 50.8524 44.1254 50.8524C43.2964 50.8524 42.0849 50.7669 42.0759 50.7651Z" fill="#2F2E43"/>
<path d="M44.3978 23.507L38.3983 23.2541C38.3983 23.2541 37.6388 26.1269 38.5985 29.1203L39.7586 47.1462H42.5585L45.1979 28.5515L44.3978 23.507Z" fill="#2F2E43"/>
<path d="M43.7718 35.2807C43.3523 35.2807 42.895 35.1781 42.4431 35.0773C42.1084 35.0026 41.8135 34.9837 41.5771 34.9693C41.2181 34.9468 40.934 34.9288 40.7761 34.7191C40.62 34.5121 40.62 34.1602 40.7761 33.4663C40.9836 32.5448 41.4454 31.0724 42.0101 29.861C42.7399 28.2986 43.4407 27.5795 44.0947 27.7262C44.9706 27.9224 45.3197 29.3813 45.4505 30.2327C45.6327 31.4216 45.6165 32.8346 45.4108 33.7489C45.1384 34.9594 44.5133 35.2798 43.7709 35.2798L43.7718 35.2807ZM43.9315 27.9791C43.4507 27.9791 42.8607 28.6793 42.2564 29.9753C41.6998 31.1678 41.2452 32.6177 41.0404 33.5258C40.9096 34.1089 40.8952 34.4266 40.9926 34.5571C41.0756 34.6669 41.293 34.6813 41.5934 34.6993C41.8396 34.7146 42.1463 34.7335 42.5017 34.8136C43.9143 35.1295 44.7974 35.2447 45.1465 33.6904C45.5209 32.0255 45.2358 28.259 44.0352 27.9899C44.0009 27.9818 43.9657 27.9782 43.9306 27.9782L43.9315 27.9791Z" fill="#DFDFE0"/>
<path d="M49.4844 46.4721L36.0304 46.5603L33.9404 45.6009L35.1581 33.2072L36.3831 33.2693L48.9874 33.9091L49.4844 46.4721Z" fill="#6C63FF"/>
<path opacity="0.2" d="M36.0304 46.5603L33.9404 45.6009L35.1581 33.2072L36.3831 33.2693L36.0304 46.5603Z" fill="#272223"/>
<path d="M43.9748 32.9948C43.7249 32.9948 43.4516 32.9336 43.1828 32.8733C42.9834 32.8283 42.8075 32.8175 42.6659 32.8085C42.4521 32.795 42.2825 32.7842 42.1887 32.6591C42.0958 32.5358 42.0958 32.3261 42.1887 31.9121C42.3123 31.3622 42.5874 30.4847 42.9248 29.7629C43.3596 28.8314 43.7781 28.403 44.1678 28.4903C44.6901 28.6073 44.8984 29.4767 44.976 29.9852C45.0843 30.6944 45.0752 31.5368 44.9526 32.0813C44.7902 32.8031 44.4177 32.9948 43.9748 32.9948ZM44.0704 28.6415C43.7835 28.6415 43.4317 29.0591 43.0718 29.8322C42.7399 30.5432 42.4683 31.4072 42.3475 31.949C42.269 32.2964 42.2609 32.4863 42.3195 32.5637C42.3691 32.6294 42.4981 32.6375 42.6776 32.6483C42.8246 32.6573 43.0069 32.669 43.2188 32.7167C44.0604 32.9048 44.5872 32.9732 44.7956 32.0471C45.0184 31.0544 44.8488 28.8089 44.1335 28.6487C44.1128 28.6442 44.0911 28.6415 44.0704 28.6415Z" fill="#DFDFE0"/>
<path d="M47.38 39.6682L39.359 39.7204L38.1123 39.1489L38.8385 31.7591L39.5691 31.796L47.0841 32.1776L47.38 39.6682Z" fill="#E2E3E4"/>
<path opacity="0.2" d="M39.359 39.7204L38.1123 39.1489L38.8385 31.7591L39.5691 31.796L39.359 39.7204Z" fill="#272223"/>
<path d="M44.4438 28.007C44.5782 28.6658 44.3319 29.2679 43.8954 29.3516C43.4588 29.4353 42.996 28.9682 42.8625 28.3094C42.8057 28.0466 42.8147 27.7748 42.8887 27.5156L42.3574 24.7157L43.7303 24.4988L44.1082 27.2816C44.2787 27.494 44.3933 27.7424 44.4438 28.007Z" fill="#F8A8AB"/>
<path d="M39.0586 11.43C39.0586 11.43 41.0665 11.1762 41.3065 11.7747C41.5464 12.3732 44.3662 26.6192 44.3662 26.6192H42.5062L39.0586 11.43Z" fill="#E2E3E4"/>
<path d="M25.1076 14.4792L23.0906 15.1407V12.2445H24.9208L25.1076 14.4792Z" fill="#F8A8AB"/>
<path d="M23.3404 13.0464C24.4504 13.0464 25.3502 12.1487 25.3502 11.0412C25.3502 9.93381 24.4504 9.03606 23.3404 9.03606C22.2305 9.03606 21.3307 9.93381 21.3307 11.0412C21.3307 12.1487 22.2305 13.0464 23.3404 13.0464Z" fill="#F8A8AB"/>
<path d="M23.8925 10.8423C23.556 10.8324 23.335 10.4931 23.2042 10.1835C23.0734 9.87395 22.939 9.51845 22.6269 9.39066C22.3716 9.28626 21.9215 9.99275 21.7204 9.80465C21.5102 9.60845 21.715 8.60136 21.9378 8.42046C22.1606 8.23957 22.4655 8.20447 22.7523 8.19097C23.4523 8.15857 24.1568 8.21527 24.8433 8.35836C25.2681 8.44656 25.7047 8.57976 26.0114 8.88576C26.3993 9.27456 26.4985 9.86045 26.5265 10.4085C26.5553 10.9692 26.5229 11.556 26.2495 12.0465C25.9762 12.537 25.4043 12.8988 24.8559 12.7737C24.8009 12.4767 24.8568 12.1716 24.8784 11.8692C24.8992 11.5677 24.8775 11.2419 24.6926 11.0016C24.5077 10.7613 24.1135 10.6659 23.8988 10.8792" fill="#2F2E43"/>
<path d="M26.365 11.5371C26.5662 11.3904 26.807 11.2671 27.0542 11.2977C27.3212 11.3301 27.5476 11.5497 27.6161 11.8098C27.6847 12.0699 27.608 12.3561 27.442 12.5685C27.277 12.7809 27.0307 12.9213 26.7709 12.9915C26.6203 13.032 26.4552 13.0491 26.3118 12.9879C26.1007 12.897 25.9861 12.6279 26.0691 12.4137" fill="#2F2E43"/>
<path d="M24.4418 46.7079H22.5529V49.3818H24.4418V46.7079Z" fill="#F8A8AB"/>
<path d="M20.7128 51C20.5143 51 20.3375 50.9955 20.204 50.9829C19.7025 50.937 19.2235 50.5671 18.9826 50.3511C18.8744 50.2539 18.8401 50.0991 18.896 49.9659C18.9366 49.8705 19.0169 49.7985 19.117 49.7706L20.4431 49.3926L22.5899 47.9472L22.6143 47.9904C22.6233 48.0066 22.8344 48.3855 22.9047 48.6411C22.9318 48.7383 22.9246 48.8193 22.884 48.8823C22.856 48.9255 22.8163 48.9507 22.7848 48.9651C22.8236 49.0056 22.9453 49.0884 23.3206 49.1478C23.8681 49.2342 23.9836 48.6681 23.9881 48.6447L23.9917 48.6258L24.0079 48.615C24.2686 48.4476 24.4292 48.3711 24.4842 48.3873C24.5185 48.3972 24.5762 48.4152 24.7323 49.9569C24.7476 50.0055 24.8568 50.3601 24.7828 50.6994C24.7025 51.0684 23.0861 50.9415 22.7622 50.9127C22.7532 50.9136 21.5418 51 20.7128 51Z" fill="#2F2E43"/>
<path d="M29.8199 44.6062L28.2172 45.6035L29.6354 47.8723L31.2381 46.875L29.8199 44.6062Z" fill="#F8A8AB"/>
<path d="M27.691 50.6337C27.4691 50.6337 27.2652 50.6067 27.12 50.5815C26.9775 50.5563 26.8656 50.4429 26.8422 50.3007C26.826 50.1981 26.8557 50.0946 26.9261 50.0181L27.8507 48.9975L28.9061 46.6377L28.9494 46.6611C28.9656 46.6701 29.3454 46.8798 29.5411 47.0598C29.616 47.1282 29.653 47.2011 29.6512 47.2758C29.6503 47.328 29.6304 47.3694 29.6106 47.3991C29.6647 47.4135 29.8117 47.4189 30.1617 47.2713C30.6723 47.0562 30.4702 46.5144 30.4612 46.4919L30.454 46.4739L30.4621 46.4568C30.5947 46.1769 30.6894 46.0275 30.7453 46.0122C30.7805 46.0023 30.8383 45.987 31.7881 47.2137C31.8269 47.2461 32.1074 47.49 32.2247 47.8167C32.3519 48.1722 30.9131 48.9183 30.6236 49.0641C30.6145 49.0713 29.109 50.163 28.4902 50.4735C28.2449 50.5968 27.9544 50.6346 27.6901 50.6346L27.691 50.6337Z" fill="#2F2E43"/>
<path d="M25.8328 24.3476H20.5441L20.0642 29.2562L22.1642 47.3928H24.864L23.7842 36.9178L28.1637 46.3749L30.5631 44.6992L27.1435 35.8702C27.1435 35.8702 28.3648 28.1789 27.4051 26.2628C26.4453 24.3467 25.8328 24.3476 25.8328 24.3476Z" fill="#2F2E43"/>
<path d="M28.4632 24.6464H20.0642L22.5836 13.8123H26.2432L28.4632 24.6464Z" fill="#6C63FF"/>
<path d="M17.9778 13.599C17.8434 12.9402 18.0896 12.3381 18.5262 12.2544C18.9628 12.1707 19.4256 12.6378 19.5591 13.2966C19.6159 13.5594 19.6069 13.8312 19.5329 14.0904L20.0642 16.8903L18.6913 17.1072L18.3133 14.3244C18.1429 14.112 18.0283 13.8636 17.9778 13.599Z" fill="#F8A8AB"/>
<path d="M26.1539 13.8123H22.9264L20.7507 18.1539L19.9298 14.9004L18.1266 15.0912C18.1266 15.0912 18.5533 21.4479 20.4178 21.2328C22.2823 21.0177 26.6311 15.291 26.153 13.8114L26.1539 13.8123Z" fill="#6C63FF"/>
<path d="M29.2019 34.405C28.9521 34.405 28.6787 34.3438 28.4099 34.2835C28.2106 34.2385 28.0347 34.2277 27.8931 34.2187C27.6793 34.2052 27.5097 34.1944 27.4159 34.0693C27.323 33.946 27.323 33.7363 27.4159 33.3224C27.5395 32.7725 27.8146 31.895 28.1519 31.1732C28.5867 30.2417 29.0053 29.8133 29.395 29.9006C29.9172 30.0176 30.1256 30.887 30.2032 31.3955C30.3114 32.1047 30.3024 32.9471 30.1797 33.4915C30.0174 34.2133 29.6448 34.405 29.2019 34.405ZM29.2975 30.0518C29.0107 30.0518 28.6589 30.4694 28.299 31.2425C27.967 31.9535 27.6955 32.8175 27.5746 33.3593C27.4962 33.7066 27.488 33.8965 27.5467 33.9739C27.5963 34.0396 27.7253 34.0477 27.9048 34.0585C28.0518 34.0675 28.234 34.0792 28.446 34.1269C29.2876 34.315 29.8144 34.3834 30.0228 33.4574C30.2456 32.4647 30.076 30.2192 29.3607 30.059C29.3399 30.0545 29.3183 30.0518 29.2975 30.0518Z" fill="#DFDFE0"/>
<path d="M32.6081 41.0776L24.5871 41.1298L23.3405 40.5583L24.0666 33.1685L24.7973 33.2054L32.3122 33.5869L32.6081 41.0776Z" fill="#E2E3E4"/>
<path opacity="0.2" d="M24.5871 41.1298L23.3405 40.5583L24.0666 33.1685L24.7973 33.2054L24.5871 41.1298Z" fill="#272223"/>
<path d="M29.7576 30.3227C29.892 30.9815 29.6458 31.5836 29.2092 31.6673C28.7726 31.751 28.3098 31.2839 28.1763 30.6251C28.1195 30.3623 28.1285 30.0905 28.2025 29.8313L27.6712 27.0314L29.0441 26.8145L29.422 29.5973C29.5925 29.8097 29.7071 30.0581 29.7576 30.3227Z" fill="#F8A8AB"/>
<path d="M24.3138 13.8123C24.3138 13.8123 26.1476 13.7349 26.2432 13.8123C26.7439 14.22 29.68 28.9358 29.68 28.9358H27.82L24.3138 13.8123Z" fill="#6C63FF"/>
</g>
</g>
<defs>
<clipPath id="clip0_1_2">
<rect width="66" height="55" fill="white"/>
</clipPath>
</defs>
</svg>
