<svg width="58" height="55" viewBox="0 0 58 55" fill="none" xmlns="http://www.w3.org/2000/svg">
<g clip-path="url(#clip0_1_44)">
<mask id="mask0_1_44" style="mask-type:luminance" maskUnits="userSpaceOnUse" x="0" y="0" width="58" height="55">
<path d="M57.5 0H0.5V55H57.5V0Z" fill="white"/>
</mask>
<g mask="url(#mask0_1_44)">
<path d="M57.5 33C57.5 45.306 35.1647 55 22.73 55C10.2953 55 0.5 45.306 0.5 33C0.5 20.694 3.17031 0 15.605 0C28.0397 0 57.5 20.694 57.5 33Z" fill="#FF3838" fill-opacity="0.83"/>
<mask id="mask1_1_44" style="mask-type:luminance" maskUnits="userSpaceOnUse" x="0" y="9" width="50" height="46">
<path d="M49.5 9H0.5V55H49.5V9Z" fill="white"/>
</mask>
<g mask="url(#mask1_1_44)">
<path d="M45.7958 44.1913L47.9939 44.5361C48.738 43.6319 49.2509 42.559 49.4882 41.4106C47.8808 42.7312 45.4365 42.0294 43.4875 42.7504C42.8813 42.98 42.3344 43.3435 41.8872 43.814C41.44 44.2846 41.1041 44.8501 40.9043 45.4687L39.83 46.6288C40.8025 47.0152 41.8468 47.1854 42.8911 47.1277C43.9354 47.07 44.9548 46.7857 45.8791 46.2945C46.3949 46.0138 46.8734 45.669 47.3034 45.2682C46.5342 44.7821 45.7958 44.1913 45.7958 44.1913Z" fill="#F2F2F2"/>
<path d="M45.0154 40.6626L47.1361 39.9873C47.4003 38.8448 47.3827 37.6549 47.0847 36.5209C46.2329 38.4224 43.7333 38.8885 42.3092 40.4062C41.8686 40.883 41.5406 41.4532 41.3495 42.0746C41.1583 42.6959 41.1089 43.3525 41.2049 43.9956L40.7589 45.5148C41.8009 45.4253 42.8113 45.1102 43.7203 44.5911C44.6293 44.072 45.4155 43.3612 46.0245 42.5078C46.3614 42.0256 46.6365 41.5028 46.8433 40.9516C45.9389 40.8608 45.0154 40.6626 45.0154 40.6626Z" fill="#F2F2F2"/>
<path d="M20.7331 43.6387C29.3443 43.6387 36.325 36.632 36.325 27.9887C36.325 19.3454 29.3443 12.3386 20.7331 12.3386C12.1219 12.3386 5.14114 19.3454 5.14114 27.9887C5.14114 36.632 12.1219 43.6387 20.7331 43.6387Z" fill="#E6E6E6"/>
<path d="M34.1494 27.9887C34.151 30.0899 33.6619 32.1623 32.7216 34.0396C31.7812 35.9169 30.4156 37.5469 28.7343 38.7988C28.6219 38.8833 28.5073 38.9655 28.392 39.0456C26.1437 40.6142 23.4712 41.455 20.7331 41.455C17.995 41.455 15.3224 40.6142 13.0742 39.0456C12.9589 38.9655 12.8443 38.8833 12.7319 38.7988C11.0518 37.5458 9.68702 35.9156 8.74675 34.0385C7.80648 32.1614 7.31677 30.0896 7.31677 27.9887C7.31677 25.8877 7.80648 23.8159 8.74675 21.9388C9.68702 20.0618 11.0518 18.4315 12.7319 17.1785C12.8443 17.094 12.9589 17.0118 13.0742 16.9317C15.3224 15.3631 17.995 14.5223 20.7331 14.5223C23.4712 14.5223 26.1437 15.3631 28.392 16.9317C28.5073 17.0118 28.6219 17.094 28.7343 17.1785C30.4156 18.4304 31.7812 20.0604 32.7216 21.9377C33.6619 23.815 34.151 25.8874 34.1494 27.9887Z" fill="white"/>
<path d="M20.7331 40.2903C27.5019 40.2903 32.9891 34.7827 32.9891 27.9887C32.9891 21.1947 27.5019 15.687 20.7331 15.687C13.9643 15.687 8.47711 21.1947 8.47711 27.9887C8.47711 34.7827 13.9643 40.2903 20.7331 40.2903Z" fill="#6C63FF"/>
<path opacity="0.2" d="M20.765 15.7214C20.5792 15.7214 20.3946 15.7263 20.2108 15.7345C23.3085 16.0077 26.1868 17.4525 28.2627 19.7763C30.3386 22.1001 31.4568 25.1291 31.3909 28.2496C31.3249 31.37 30.0796 34.3486 27.9073 36.5819C25.7351 38.8152 22.7982 40.1362 19.6918 40.2772C20.0456 40.308 20.4033 40.3247 20.765 40.3247C24.0155 40.3247 27.1329 39.0286 29.4313 36.7216C31.7298 34.4146 33.021 31.2856 33.021 28.023C33.021 24.7604 31.7298 21.6315 29.4313 19.3245C27.1329 17.0174 24.0155 15.7214 20.765 15.7214Z" fill="black"/>
<path d="M20.7693 14.8135C20.6636 14.8137 20.5623 14.856 20.4875 14.931C20.4127 15.006 20.3707 15.1078 20.3705 15.2139V16.9609C20.3705 17.067 20.4125 17.1689 20.4873 17.244C20.5621 17.319 20.6636 17.3612 20.7693 17.3612C20.8751 17.3612 20.9766 17.319 21.0514 17.244C21.1262 17.1689 21.1682 17.067 21.1682 16.9609V15.2139C21.168 15.1078 21.1259 15.006 21.0512 14.931C20.9764 14.856 20.8751 14.8137 20.7693 14.8135Z" fill="white"/>
<path d="M28.7343 17.1785C28.6219 17.0941 28.5073 17.0118 28.392 16.9318C28.3228 16.9272 28.2536 16.9409 28.1913 16.9714C28.129 17.0019 28.0757 17.0482 28.0367 17.1057L27.0569 18.5492C26.9974 18.6369 26.975 18.7448 26.9947 18.8491C27.0144 18.9534 27.0746 19.0455 27.1621 19.1053C27.2495 19.165 27.357 19.1875 27.4609 19.1677C27.5648 19.1479 27.6566 19.0875 27.7161 18.9997L28.6959 17.5563C28.7331 17.5015 28.7562 17.4383 28.7629 17.3723C28.7696 17.3063 28.7598 17.2397 28.7343 17.1785Z" fill="white"/>
<path d="M33.1856 23.7603C33.1659 23.7116 33.1368 23.6673 33.1001 23.6299C33.0633 23.5925 33.0196 23.5628 32.9713 23.5424C32.9231 23.5219 32.8714 23.5113 32.819 23.5109C32.7667 23.5106 32.7148 23.5206 32.6663 23.5404L31.0535 24.1977C30.9556 24.2378 30.8775 24.3152 30.8364 24.4129C30.7954 24.5107 30.7947 24.6208 30.8344 24.7191C30.8742 24.8174 30.9513 24.8959 31.0486 24.9372C31.146 24.9785 31.2557 24.9793 31.3537 24.9395L32.9666 24.2822C33.0644 24.2419 33.1424 24.1644 33.1835 24.0666C33.2245 23.9688 33.2253 23.8586 33.1856 23.7603Z" fill="white"/>
<path d="M14.4093 18.5492L13.4295 17.1057C13.3905 17.0482 13.3372 17.0019 13.2749 16.9714C13.2125 16.9409 13.1434 16.9272 13.0742 16.9318C12.9589 17.0118 12.8443 17.0941 12.7319 17.1785C12.7064 17.2397 12.6966 17.3063 12.7033 17.3723C12.71 17.4383 12.733 17.5015 12.7703 17.5563L13.7501 18.9997C13.8096 19.0875 13.9014 19.1479 14.0053 19.1677C14.1092 19.1875 14.2167 19.165 14.3041 19.1053C14.3915 19.0455 14.4517 18.9534 14.4715 18.8491C14.4912 18.7448 14.4688 18.6369 14.4093 18.5492Z" fill="white"/>
<path d="M10.4127 24.1977L8.79982 23.5404C8.70183 23.5005 8.59204 23.5012 8.49461 23.5425C8.39718 23.5838 8.32009 23.6623 8.28028 23.7606C8.24047 23.859 8.24121 23.9692 8.28233 24.067C8.32346 24.1648 8.40161 24.2422 8.49958 24.2821L10.1124 24.9394C10.2104 24.9793 10.3201 24.9785 10.4175 24.9371C10.5149 24.8958 10.5919 24.8174 10.6317 24.7191C10.6715 24.6208 10.6708 24.5107 10.6297 24.4129C10.5886 24.3151 10.5106 24.2377 10.4127 24.1977Z" fill="white"/>
<path d="M20.7693 38.6161C20.6636 38.6163 20.5623 38.6586 20.4875 38.7336C20.4127 38.8087 20.3707 38.9104 20.3705 39.0165V40.7635C20.3705 40.8697 20.4125 40.9715 20.4873 41.0466C20.5621 41.1217 20.6636 41.1638 20.7693 41.1638C20.8751 41.1638 20.9766 41.1217 21.0514 41.0466C21.1262 40.9715 21.1682 40.8697 21.1682 40.7635V39.0165C21.168 38.9104 21.1259 38.8087 21.0512 38.7336C20.9764 38.6586 20.8751 38.6163 20.7693 38.6161Z" fill="white"/>
<path d="M28.6958 38.4211L27.7161 36.9776C27.6866 36.9342 27.6489 36.897 27.6051 36.8682C27.5613 36.8394 27.5123 36.8195 27.4608 36.8097C27.4094 36.7999 27.3565 36.8004 27.3052 36.8111C27.254 36.8218 27.2053 36.8425 27.162 36.8721C27.1187 36.9017 27.0817 36.9395 27.053 36.9835C27.0243 37.0275 27.0045 37.0767 26.9947 37.1283C26.9849 37.1799 26.9854 37.233 26.9961 37.2845C27.0067 37.3359 27.0274 37.3848 27.0569 37.4282L28.0366 38.8717C28.0757 38.9292 28.129 38.9755 28.1913 39.006C28.2536 39.0365 28.3228 39.0502 28.392 39.0456C28.5073 38.9656 28.6219 38.8833 28.7343 38.7989C28.7598 38.7377 28.7696 38.6711 28.7629 38.6051C28.7562 38.5391 28.7331 38.4759 28.6958 38.4211Z" fill="white"/>
<path d="M32.9666 31.6952L31.3537 31.0379C31.2558 30.998 31.146 30.9987 31.0485 31.04C30.9511 31.0813 30.874 31.1598 30.8342 31.2581C30.7944 31.3565 30.7951 31.4667 30.8363 31.5645C30.8774 31.6623 30.9555 31.7397 31.0535 31.7796L32.6664 32.4369C32.7643 32.4768 32.8741 32.476 32.9714 32.4346C33.0688 32.3933 33.1458 32.3149 33.1856 32.2166C33.2254 32.1183 33.2247 32.0082 33.1836 31.9104C33.1426 31.8126 33.0645 31.7352 32.9666 31.6952Z" fill="white"/>
<path d="M14.3041 36.8721C14.2167 36.8123 14.1092 36.7899 14.0053 36.8097C13.9014 36.8295 13.8096 36.8899 13.7501 36.9776L12.7703 38.421C12.733 38.4758 12.71 38.5391 12.7033 38.605C12.6966 38.671 12.7064 38.7376 12.7319 38.7988C12.8443 38.8833 12.9589 38.9655 13.0742 39.0456C13.1434 39.0501 13.2125 39.0365 13.2749 39.0059C13.3372 38.9754 13.3905 38.9291 13.4295 38.8716L14.4093 37.4282C14.4388 37.3847 14.4594 37.3359 14.4701 37.2844C14.4808 37.233 14.4812 37.1799 14.4715 37.1283C14.4617 37.0766 14.4419 37.0274 14.4132 36.9835C14.3845 36.9395 14.3474 36.9016 14.3041 36.8721Z" fill="white"/>
<path d="M10.6317 31.2577C10.612 31.209 10.5829 31.1647 10.5462 31.1273C10.5094 31.09 10.4657 31.0602 10.4175 31.0398C10.3692 31.0194 10.3175 31.0087 10.2651 31.0084C10.2128 31.008 10.1609 31.0181 10.1125 31.0379L8.49959 31.6952C8.40169 31.7352 8.32362 31.8126 8.28255 31.9104C8.24148 32.0081 8.24076 32.1183 8.28055 32.2166C8.32034 32.3149 8.39739 32.3933 8.49475 32.4346C8.59212 32.4759 8.70185 32.4768 8.79982 32.4369L10.4127 31.7796C10.5105 31.7394 10.5885 31.6619 10.6296 31.5641C10.6706 31.4662 10.6714 31.3561 10.6317 31.2577Z" fill="white"/>
<path d="M21.2869 27.79C21.3237 28.0089 21.2725 28.2334 21.1446 28.4144C21.0167 28.5955 20.8225 28.7182 20.6045 28.7556L13.5267 29.9641C13.4187 29.9825 13.3082 29.9794 13.2014 29.955C13.0946 29.9305 12.9937 29.8852 12.9043 29.8216C12.815 29.758 12.739 29.6774 12.6807 29.5843C12.6225 29.4912 12.583 29.3876 12.5646 29.2792C12.5463 29.1708 12.5494 29.0599 12.5737 28.9527C12.5981 28.8455 12.6432 28.7442 12.7066 28.6545C12.7699 28.5649 12.8503 28.4886 12.943 28.4301C13.0357 28.3716 13.139 28.332 13.247 28.3136L20.3248 27.1052C20.5429 27.0682 20.7666 27.1195 20.9469 27.2479C21.1273 27.3763 21.2495 27.5713 21.2869 27.79Z" fill="#3F3D56"/>
<path d="M28.7361 35.661C28.6345 35.7636 28.4964 35.8216 28.3522 35.8222C28.208 35.8227 28.0694 35.7659 27.967 35.664L20.3477 28.0764C20.2455 27.9744 20.1878 27.8358 20.1873 27.6911C20.1868 27.5464 20.2435 27.4074 20.3451 27.3047C20.4466 27.202 20.5846 27.1439 20.7288 27.1433C20.8729 27.1426 21.0114 27.1995 21.1139 27.3013L28.7331 34.8889C28.8354 34.991 28.8931 35.1296 28.8937 35.2743C28.8943 35.4191 28.8376 35.5581 28.7361 35.661Z" fill="#3F3D56"/>
<path d="M20.7331 28.9349C21.2538 28.9349 21.6758 28.5113 21.6758 27.9886C21.6758 27.466 21.2538 27.0424 20.7331 27.0424C20.2124 27.0424 19.7903 27.466 19.7903 27.9886C19.7903 28.5113 20.2124 28.9349 20.7331 28.9349Z" fill="#CCCCCC"/>
<path d="M14.2393 11.5801C12.7922 13.8637 10.5842 15.3792 7.86113 16.3748C7.80732 16.4153 7.7461 16.4447 7.68097 16.4614C7.61583 16.4781 7.54806 16.4818 7.48152 16.4722C7.41497 16.4626 7.35096 16.4399 7.29314 16.4055C7.23531 16.3711 7.18481 16.3256 7.14451 16.2716C5.66539 14.2893 5.99937 11.4562 7.95151 9.94156C8.42346 9.57599 8.96307 9.30817 9.53899 9.15364C10.1149 8.9991 10.7157 8.96094 11.3064 9.04135C11.8972 9.12177 12.4661 9.31917 12.9802 9.62209C13.4943 9.92501 13.9434 10.3274 14.3013 10.806L14.3422 10.8608C14.3825 10.9148 14.4118 10.9762 14.4284 11.0416C14.4451 11.107 14.4487 11.175 14.4391 11.2418C14.4296 11.3086 14.407 11.3729 14.3727 11.4309C14.3385 11.4889 14.2931 11.5396 14.2393 11.5801Z" fill="#E6E6E6"/>
<path d="M27.1649 10.806C27.5228 10.3274 27.9718 9.92501 28.486 9.62209C29.0001 9.31917 29.569 9.12177 30.1597 9.04135C30.7505 8.96094 31.3513 8.9991 31.9272 9.15364C32.5031 9.30817 33.0427 9.57599 33.5147 9.94156C35.4668 11.4562 35.8008 14.2893 34.3216 16.2716C34.2814 16.3256 34.2309 16.3711 34.173 16.4055C34.1152 16.4399 34.0512 16.4626 33.9846 16.4722C33.9181 16.4818 33.8503 16.4781 33.7852 16.4614C33.7201 16.4447 33.6588 16.4153 33.605 16.3748C31.0772 15.4034 29.0042 13.7224 27.2269 11.5801C27.1182 11.4984 27.0463 11.3767 27.027 11.2418C27.0077 11.1069 27.0426 10.9699 27.124 10.8608L27.1649 10.806Z" fill="#E6E6E6"/>
<path d="M26.5306 41.5473C26.4384 41.5993 26.3706 41.6858 26.3418 41.788C26.3131 41.8901 26.3259 41.9995 26.3773 42.0922L28.6793 46.2211C28.7309 46.3137 28.8171 46.3819 28.9189 46.4108C29.0207 46.4396 29.1298 46.4267 29.2221 46.3749C29.3144 46.323 29.3824 46.2365 29.4111 46.1343C29.4399 46.0322 29.427 45.9227 29.3754 45.8301L27.0735 41.7012C27.0217 41.6087 26.9355 41.5405 26.8337 41.5117C26.732 41.4828 26.623 41.4957 26.5306 41.5473Z" fill="#E6E6E6"/>
<path d="M14.3927 41.7011L12.0908 45.83C12.0391 45.9227 12.0263 46.0321 12.055 46.1343C12.0838 46.2365 12.1518 46.323 12.2441 46.3748C12.3364 46.4267 12.4454 46.4396 12.5472 46.4108C12.649 46.3819 12.7352 46.3137 12.7869 46.221L15.0888 42.0922C15.1144 42.0463 15.1308 41.9958 15.1369 41.9436C15.1431 41.8913 15.1389 41.8384 15.1247 41.7878C15.1104 41.7372 15.0864 41.6899 15.054 41.6486C15.0215 41.6073 14.9813 41.5729 14.9356 41.5472C14.8899 41.5215 14.8396 41.5051 14.7875 41.499C14.7355 41.4928 14.6828 41.497 14.6324 41.5113C14.582 41.5256 14.5348 41.5497 14.4937 41.5823C14.4526 41.6149 14.4183 41.6552 14.3927 41.7011Z" fill="#E6E6E6"/>
<path d="M29.1455 47.2782C29.8264 47.2782 30.3783 46.7242 30.3783 46.0408C30.3783 45.3574 29.8264 44.8033 29.1455 44.8033C28.4646 44.8033 27.9126 45.3574 27.9126 46.0408C27.9126 46.7242 28.4646 47.2782 29.1455 47.2782Z" fill="#E6E6E6"/>
<path d="M30.0157 15.6142C30.6966 15.6142 31.2486 15.0602 31.2486 14.3768C31.2486 13.6934 30.6966 13.1393 30.0157 13.1393C29.3348 13.1393 28.7829 13.6934 28.7829 14.3768C28.7829 15.0602 29.3348 15.6142 30.0157 15.6142Z" fill="#E6E6E6"/>
<path d="M20.6606 12.7026C21.3414 12.7026 21.8934 12.1485 21.8934 11.4651C21.8934 10.7817 21.3414 10.2277 20.6606 10.2277C19.9797 10.2277 19.4277 10.7817 19.4277 11.4651C19.4277 12.1485 19.9797 12.7026 20.6606 12.7026Z" fill="#E6E6E6"/>
<path d="M11.7405 15.4686C12.4214 15.4686 12.9734 14.9146 12.9734 14.2312C12.9734 13.5477 12.4214 12.9937 11.7405 12.9937C11.0597 12.9937 10.5077 13.5477 10.5077 14.2312C10.5077 14.9146 11.0597 15.4686 11.7405 15.4686Z" fill="#E6E6E6"/>
<path d="M12.5383 47.2782C13.2192 47.2782 13.7711 46.7242 13.7711 46.0408C13.7711 45.3574 13.2192 44.8033 12.5383 44.8033C11.8574 44.8033 11.3054 45.3574 11.3054 46.0408C11.3054 46.7242 11.8574 47.2782 12.5383 47.2782Z" fill="#E6E6E6"/>
<path d="M28.1784 34.965C28.227 35.0414 28.2917 35.1061 28.368 35.1547C28.4442 35.2033 28.5301 35.2345 28.6196 35.2461C28.7092 35.2577 28.8002 35.2495 28.8862 35.222C28.9722 35.1946 29.0512 35.1485 29.1176 35.087L31.0521 36.1275L30.9484 34.9875L29.1272 34.1742C29.017 34.0692 28.8722 34.0083 28.7203 34.0032C28.5684 33.9981 28.4199 34.0492 28.3029 34.1466C28.186 34.2441 28.1087 34.3812 28.0858 34.5321C28.0628 34.6829 28.0958 34.8369 28.1784 34.965Z" fill="#FFB7B7"/>
<path d="M29.588 35.3629L30.346 34.3125L33.9982 36.0454L38.5428 35.1895C38.7675 35.1472 38.9986 35.1551 39.2199 35.2125C39.4412 35.27 39.6471 35.3756 39.8232 35.5219C39.9992 35.6683 40.141 35.8517 40.2384 36.0592C40.3359 36.2668 40.3866 36.4933 40.387 36.7227C40.3874 37.137 40.2239 37.5346 39.9325 37.8281C39.6411 38.1217 39.2457 38.2872 38.8328 38.2884L33.6247 38.2981L29.588 35.3629Z" fill="#3F3D56"/>
<path d="M28.4204 53.5043L27.6533 53.1362L28.707 49.9182L29.8389 50.4617L28.4204 53.5043Z" fill="#FFB7B7"/>
<path d="M33.5625 52.9855C33.5067 53.0206 33.451 53.0551 33.3946 53.0896C33.2825 53.1585 33.1693 53.2264 33.056 53.2931C32.9991 53.3265 32.9416 53.3599 32.8847 53.3927V53.3944L32.8814 53.3949L32.8802 53.3955L32.7935 53.417L32.669 53.0867L32.6115 52.9346L32.5304 52.7192L32.3816 52.325L31.5985 50.2497L32.816 49.9482L32.8616 50.1354L32.8847 50.2282L33.3101 51.9597L33.3969 52.3137L33.3997 52.3245L33.4521 52.5359L33.4971 52.7192L33.5473 52.9239L33.5625 52.9855Z" fill="#FFB7B7"/>
<path d="M40.8253 45.6974C40.7481 45.8218 40.6693 45.9456 40.5898 46.0683C40.4422 46.2968 40.2907 46.5219 40.1352 46.7435L40.134 46.7447C40.0433 46.829 39.9431 46.9025 39.8354 46.9635C39.8309 46.9669 39.8259 46.9692 39.8213 46.972C39.7421 47.016 39.6577 47.05 39.5701 47.0732C39.5385 47.0811 39.5064 47.089 39.4749 47.097C39.3611 47.1241 39.2484 47.1473 39.1363 47.1677C38.9368 47.2033 38.7396 47.2287 38.5436 47.2446C38.5278 47.2463 38.512 47.2474 38.4962 47.2485C37.69 47.3079 36.9052 47.2123 36.0861 47.0557C35.6815 46.9788 35.2686 46.8866 34.841 46.791C34.7012 46.7594 34.561 46.7283 34.419 46.6972C34.4083 46.6949 34.397 46.6921 34.3857 46.6898C34.1829 46.6451 33.9767 46.601 33.7654 46.5575C33.4995 46.5026 33.2251 46.4495 32.9401 46.3991L32.9603 46.8023C32.9772 47.1125 33.0415 47.4182 33.1508 47.7088C33.2725 48.0662 33.3688 48.349 33.1654 48.9376L33.0674 49.2227C33.1182 49.3642 33.1357 49.5156 33.1183 49.665C33.101 49.8145 33.0495 49.9578 32.9677 50.0839L32.948 50.1139L33.7654 52.1898L33.8184 52.3244H33.3998L32.8849 52.3249H32.0122L30.753 49.7893L30.6927 49.6683V49.662L30.8228 44.7892C30.8245 44.7462 30.8279 44.7027 30.8335 44.6597C30.8565 44.4643 30.918 44.2755 31.0144 44.1042C31.1109 43.9329 31.2403 43.7827 31.3952 43.6622C31.5437 43.5457 31.7137 43.46 31.8955 43.4101C32.0772 43.3602 32.267 43.3471 32.4539 43.3715L32.8849 43.4275L33.7654 43.5417L34.3857 43.6226L34.3981 43.6243L36.2275 43.8618L36.3587 43.3246L36.383 43.3155L37.1531 43.0322L39.8168 42.0522L39.8236 42.0499L39.9988 41.9855L40.0197 42.0194C40.0259 42.0296 40.0321 42.0398 40.0377 42.0499C40.2109 42.3616 40.3519 42.6901 40.4585 43.0305C40.6379 43.5865 40.7856 44.1524 40.9008 44.7253C40.9059 44.7502 40.9104 44.7728 40.9143 44.7932L40.916 44.7994C40.9177 44.809 40.9194 44.8169 40.9194 44.8169C40.9808 45.0736 40.938 45.3869 40.8253 45.6974Z" fill="#2F2E41"/>
<path d="M40.9378 43.9015C40.9293 43.8653 40.9186 43.8286 40.9073 43.793C40.8179 43.5231 40.7137 43.2584 40.5952 43.0001C40.4623 42.7061 40.3028 42.3911 40.113 42.0501C40.0211 41.885 39.9223 41.7133 39.8166 41.5349C39.7637 41.4456 39.7086 41.3546 39.6515 41.2618C39.6493 41.2575 39.6469 41.2534 39.6442 41.2494L39.6279 41.2222L36.9923 41.5762L36.0109 41.708L35.9523 42.1988L35.9382 42.3204C35.9376 42.3204 35.9376 42.3198 35.9382 42.3204L35.8988 42.6524L35.8464 43.0906L35.8419 43.0901L34.3855 42.9006L32.8846 42.7055L32.0784 42.6009C31.8916 42.5765 31.7018 42.5896 31.52 42.6395C31.3383 42.6894 31.1682 42.7751 31.0198 42.8916C30.8649 43.0121 30.7355 43.1624 30.639 43.3337C30.5426 43.5049 30.4811 43.6937 30.4581 43.8891C30.453 43.9287 30.4496 43.9694 30.4479 44.0095L29.6874 45.8186C29.2322 46.9004 28.9424 48.0451 28.8276 49.2138L28.2699 51.0036L28.3493 51.0109L29.5313 51.1212L29.8434 51.1506L30.5308 50.1435C30.6091 50.0287 30.6834 49.9105 30.7527 49.7895C30.8668 49.5918 30.9683 49.3871 31.0564 49.1765L32.5432 45.6252C32.6581 45.645 32.7719 45.6638 32.8846 45.6817C33.4058 45.7665 33.9061 45.8357 34.3855 45.8892C35.9444 46.064 37.2943 46.0776 38.496 45.9294C38.8335 45.8881 39.1597 45.8338 39.4746 45.7665C39.5901 45.7422 39.7041 45.716 39.8166 45.6879C39.8431 45.6817 39.869 45.6755 39.8949 45.6687C40.1278 45.6084 40.3418 45.4905 40.5175 45.3257C40.6932 45.1609 40.8249 44.9546 40.9006 44.7255C40.9909 44.46 41.0038 44.1741 40.9378 43.9015Z" fill="#2F2E41"/>
<path d="M28.6654 52.9789L27.8355 52.5796L27.7053 52.5168L27.4974 53.0292L26.0461 53.3498C25.9744 53.3656 25.9095 53.404 25.8611 53.4594C25.8126 53.5149 25.7831 53.5844 25.7768 53.6578C25.7705 53.7313 25.7878 53.8049 25.8261 53.8678C25.8644 53.9307 25.9218 53.9796 25.9898 54.0075L27.4079 54.5883L27.858 54.1817L27.7476 54.7274L28.2817 54.9462L28.867 53.0761L28.6654 52.9789Z" fill="#2F2E41"/>
<path d="M33.7654 52.1898L33.8184 52.3243H33.7654V52.1898Z" fill="#2F2E41"/>
<path d="M33.4764 52.3531L32.6069 52.6555L32.4704 52.7028L32.6818 53.2137L31.8753 54.4665C31.8354 54.5284 31.8162 54.6015 31.8207 54.6751C31.8251 54.7487 31.8528 54.819 31.8998 54.8756C31.9469 54.9323 32.0107 54.9723 32.0821 54.99C32.1534 55.0076 32.2285 55.0019 32.2963 54.9736L33.7111 54.3848L33.7459 53.778L34.05 54.2437L34.5829 54.022L33.6879 52.2798L33.4764 52.3531Z" fill="#2F2E41"/>
<path d="M40.7209 44.7208C40.6693 44.7207 40.6184 44.7081 40.5728 44.6839L35.9841 42.2773L35.931 42.0594L35.8311 41.37L35.8325 41.3635L36.2689 39.344C36.2609 39.3267 36.2442 39.2983 36.2253 39.2661C36.0305 38.9348 35.4376 37.9264 36.5691 36.5379L38.5559 34.213L40.261 34.1393L40.2804 34.1639C40.7364 34.7383 41.0439 35.4169 41.1756 36.1393C41.3073 36.8618 41.2591 37.6057 41.0354 38.3049L40.8578 41.5235L41.0483 42.1735C41.1596 42.5555 41.1412 42.9638 40.9959 43.3341L41.0396 44.3866C41.0413 44.4297 41.0343 44.4728 41.0191 44.5131C41.0039 44.5535 40.9807 44.5904 40.9509 44.6216C40.9212 44.6528 40.8855 44.6777 40.846 44.6947C40.8065 44.7117 40.7639 44.7206 40.7209 44.7208Z" fill="#3F3D56"/>
<path d="M36.7405 47.3752C36.8183 47.3292 36.885 47.2665 36.936 47.1917C36.987 47.117 37.021 47.0319 37.0357 46.9425C37.0505 46.853 37.0454 46.7615 37.0211 46.6742C36.9967 46.587 36.9536 46.5061 36.8947 46.4374L37.9979 44.533L36.8593 44.5974L35.9862 46.396C35.8777 46.5029 35.8121 46.646 35.8017 46.7982C35.7914 46.9505 35.837 47.1012 35.93 47.2219C36.023 47.3426 36.1569 47.4249 36.3062 47.4532C36.4556 47.4814 36.6101 47.4537 36.7405 47.3752Z" fill="#FFB7B7"/>
<path d="M37.1857 45.9751L36.1663 45.1781L38.0187 41.5749L37.3246 36.9863C37.2903 36.7595 37.3061 36.5278 37.3711 36.3079C37.436 36.0879 37.5483 35.885 37.7001 35.7135C37.852 35.542 38.0395 35.4062 38.2495 35.3156C38.4596 35.2251 38.6868 35.1821 38.9153 35.1896C39.3279 35.2037 39.718 35.3815 40.0002 35.684C40.2823 35.9865 40.4334 36.389 40.4202 36.8031L40.2487 42.0279L37.1857 45.9751Z" fill="#3F3D56"/>
<path d="M37.4621 33.2469V31.5533C37.4617 30.9515 37.6996 30.3741 38.1233 29.9482C38.547 29.5223 39.122 29.2829 39.7216 29.2825C40.3213 29.2821 40.8965 29.5208 41.3208 29.9461C41.7451 30.3715 41.9837 30.9485 41.9841 31.5504V31.5533C42.3825 32.3868 42.1332 32.7831 41.9841 33.2469C41.9839 33.3277 41.9519 33.4051 41.895 33.4623C41.8381 33.5194 41.7609 33.5515 41.6805 33.5517H37.7658C37.6853 33.5516 37.6081 33.5194 37.5512 33.4623C37.4943 33.4052 37.4622 33.3277 37.4621 33.2469Z" fill="#2F2E41"/>
<path d="M38.9818 33.4416C39.9165 33.4416 40.6742 32.681 40.6742 31.7429C40.6742 30.8047 39.9165 30.0441 38.9818 30.0441C38.0471 30.0441 37.2893 30.8047 37.2893 31.7429C37.2893 32.681 38.0471 33.4416 38.9818 33.4416Z" fill="#FFB7B7"/>
<path d="M40.753 32.1882C40.7376 32.1858 40.7223 32.1825 40.707 32.1801C40.443 32.1331 40.179 32.0869 39.9158 32.0391L39.8916 31.4403L39.5727 31.9767C38.8453 32.219 38.1647 32.0821 37.5245 31.7798C37.3133 31.6792 37.1084 31.5658 36.9109 31.4403C36.9647 31.1091 37.0916 30.7942 37.2823 30.5185C37.4729 30.2429 37.7226 30.0135 38.0129 29.8472C38.0372 29.8334 38.0606 29.8213 38.0848 29.8091L38.0856 29.8083C38.1268 29.7888 38.1688 29.7702 38.2107 29.7532C38.5394 29.6243 38.8978 29.5916 39.2442 29.659C39.5906 29.7264 39.9108 29.8912 40.1677 30.134C40.6843 30.6291 40.9169 31.4468 40.753 32.1882Z" fill="#2F2E41"/>
</g>
</g>
</g>
<defs>
<clipPath id="clip0_1_44">
<rect width="58" height="55" fill="white"/>
</clipPath>
</defs>
</svg>
