<svg width="58" height="55" viewBox="0 0 58 55" fill="none" xmlns="http://www.w3.org/2000/svg">
<g clip-path="url(#clip0_1_2)">
<path d="M57.5 33C57.5 45.306 35.1647 55 22.73 55C10.2953 55 0.5 45.306 0.5 33C0.5 20.694 3.17031 0 15.605 0C28.0397 0 57.5 20.694 57.5 33Z" fill="#FF3838" fill-opacity="0.83"/>
<mask id="mask0_1_2" style="mask-type:luminance" maskUnits="userSpaceOnUse" x="0" y="11" width="53" height="35">
<path d="M52.5 11H0.5V46H52.5V11Z" fill="white"/>
</mask>
<g mask="url(#mask0_1_2)">
<path d="M3.99947 37.3744C3.75255 37.3744 3.50512 37.3845 3.26349 37.405L3.22832 37.4079C1.62556 37.549 0.453219 38.3671 0.501435 39.311L0.510756 39.4817C0.516902 39.5896 0.523452 39.7056 0.528842 39.8342C0.531762 39.8977 0.618776 39.9464 0.727047 39.9464H40.1511C42.9306 39.9296 45.7001 39.9085 48.3822 39.8836C48.8852 39.8846 49.3879 39.8587 49.8881 39.8059C50.6335 39.7181 51.1508 39.5441 51.4698 39.2739C51.8665 38.9388 51.8791 38.5168 51.8551 38.0401C51.8063 37.0774 51.7578 36.0661 51.7094 35.0579C51.6667 34.1693 51.6242 33.2831 51.5817 32.4347C51.5554 31.9312 51.4969 31.4868 51.0464 31.1471C50.5581 30.7798 49.6675 30.5936 48.3994 30.5936C48.3841 30.5936 48.3689 30.5936 48.3534 30.5936C44.3792 30.6077 40.4415 31.9677 38.5548 33.9779C38.3376 34.2094 38.1352 34.4572 37.9394 34.6969C37.6501 35.051 37.351 35.4171 36.9941 35.7445C36.8009 35.9241 36.5919 36.0863 36.3697 36.2289C36.3543 36.2395 36.3368 36.2508 36.3183 36.2615C36.2758 36.289 36.2315 36.3155 36.1883 36.3391C35.9352 36.4846 35.6685 36.6053 35.3919 36.6995L35.364 36.7088C35.343 36.7163 35.3203 36.7238 35.2975 36.7306C35.1378 36.7816 34.9719 36.8257 34.8056 36.8614C34.0865 37.0192 33.2687 37.057 32.3752 36.9737C31.5546 36.8952 30.7446 36.7309 29.9586 36.4836C29.1312 36.2233 28.3567 35.8988 27.6077 35.585C27.2787 35.4472 26.9385 35.3046 26.5986 35.1696C26.5347 35.1441 26.4719 35.1193 26.4081 35.0945C25.9931 34.9335 25.6168 34.8005 25.2578 34.688C24.3683 34.4081 23.4475 34.2383 22.5164 34.1826C21.528 34.1287 20.6569 34.2303 19.9281 34.4838C19.7272 34.5534 19.5315 34.6374 19.3427 34.7349C18.4794 35.181 17.9472 35.8395 17.4326 36.4763C16.7925 37.2684 16.1305 38.0876 14.8234 38.5122C13.3151 39.0026 11.1135 38.7989 9.55588 38.4445C9.06616 38.3331 8.57705 38.205 8.10401 38.081C7.91296 38.0309 7.72178 37.9811 7.53046 37.9317C7.15451 37.8351 6.84683 37.7611 6.56217 37.6986L6.47213 37.6787C6.42205 37.6679 6.37192 37.657 6.32088 37.6467C5.98277 37.5761 5.66793 37.5205 5.35788 37.4767L5.28452 37.4661C5.13746 37.4468 4.99996 37.4308 4.86504 37.4173L4.81118 37.4119C4.54693 37.3869 4.27345 37.3744 3.99947 37.3744Z" fill="#F2F2F2"/>
<path d="M44.7662 38.4279C45.8755 37.433 47.5255 36.9327 48.9096 37.4906C47.4898 38.2751 46.3947 39.5342 45.8178 41.045C45.5975 41.6284 45.4134 42.3002 44.8715 42.6126C44.5343 42.8069 44.1147 42.8164 43.7366 42.7226C43.3585 42.6288 43.012 42.4407 42.6701 42.2545L42.5729 42.2523C43.0095 40.831 43.6569 39.4228 44.7662 38.4279Z" fill="#E6E6E6"/>
<path d="M48.9018 37.5208C47.676 37.6785 46.5313 38.2166 45.6302 39.0586C45.433 39.2365 45.2652 39.4441 45.133 39.674C45.0114 39.902 44.9535 40.1583 44.9651 40.4162C44.9711 40.6569 45.0052 40.9024 44.9523 41.1403C44.9234 41.2617 44.8691 41.3757 44.7928 41.4747C44.7166 41.5737 44.6202 41.6556 44.5099 41.7149C44.2391 41.8699 43.9284 41.9187 43.6229 41.956C43.2838 41.9973 42.9308 42.035 42.6373 42.2243C42.6017 42.2472 42.568 42.191 42.6035 42.1681C43.1143 41.8387 43.7606 41.9585 44.3099 41.7387C44.5661 41.6361 44.7929 41.456 44.8732 41.1838C44.9434 40.9457 44.9084 40.6925 44.9002 40.4489C44.8852 40.1974 44.9322 39.9462 45.0372 39.717C45.1573 39.4812 45.3167 39.2675 45.5089 39.0849C45.9348 38.667 46.424 38.3184 46.9588 38.0518C47.5673 37.7442 48.2243 37.5425 48.9012 37.4553C48.9431 37.45 48.9435 37.5155 48.9018 37.5208Z" fill="white"/>
<path d="M45.9043 38.7705C45.7829 38.6009 45.726 38.3938 45.7438 38.1862C45.7617 37.9787 45.853 37.7842 46.0016 37.6376C46.0318 37.608 46.0794 37.6533 46.0492 37.6829C45.9105 37.8192 45.8255 38.0004 45.8093 38.1936C45.7931 38.3869 45.8468 38.5796 45.9608 38.7369C45.9856 38.7711 45.9289 38.8045 45.9043 38.7705Z" fill="white"/>
<path d="M44.9459 40.2946C45.3671 40.3688 45.801 40.2824 46.1611 40.0524C46.1967 40.0296 46.2304 40.0859 46.1948 40.1086C45.8197 40.3473 45.368 40.4363 44.9298 40.3581C44.888 40.3506 44.9044 40.2871 44.9459 40.2946Z" fill="white"/>
<path d="M47.5727 37.8309C47.6059 37.9063 47.6575 37.9723 47.7226 38.0229C47.7878 38.0736 47.8647 38.1073 47.9462 38.1212C47.988 38.1281 47.9717 38.1916 47.9301 38.1847C47.8401 38.169 47.7553 38.1316 47.6831 38.0758C47.611 38.02 47.5537 37.9474 47.5162 37.8645C47.512 37.857 47.5108 37.8481 47.5129 37.8398C47.5151 37.8314 47.5203 37.8242 47.5276 37.8196C47.5351 37.8152 47.544 37.8139 47.5525 37.816C47.5609 37.8181 47.5682 37.8235 47.5727 37.8309Z" fill="white"/>
<path d="M50.4337 42.2885C50.4074 42.2849 50.3812 42.2813 50.3545 42.2781C50.0014 42.2315 49.6451 42.2135 49.289 42.2243C49.2615 42.2247 49.2336 42.2255 49.2061 42.2267C48.3486 42.2618 47.5051 42.455 46.7184 42.7966C46.4055 42.9328 46.1035 43.0925 45.8149 43.2743C45.4164 43.5254 45.0044 43.8292 44.559 43.9317C44.5126 43.9429 44.4656 43.9512 44.4182 43.9566L42.5777 42.3705C42.5754 42.3648 42.5726 42.3595 42.5702 42.3538L42.4938 42.2938C42.5081 42.2834 42.523 42.2729 42.5373 42.2625C42.5455 42.2564 42.5541 42.2507 42.5623 42.2446C42.568 42.2407 42.5736 42.2368 42.5784 42.2329C42.5803 42.2316 42.5837 42.2294 42.5837 42.2294C42.5885 42.2255 42.5934 42.2224 42.5979 42.219C42.6815 42.1601 42.7656 42.1017 42.8503 42.0438L42.8514 42.0433C43.4924 41.5958 44.1845 41.2255 44.9131 40.9403C44.935 40.932 44.9572 40.9234 44.9799 40.9159C45.308 40.7945 45.6456 40.6999 45.9892 40.6332C46.1775 40.5973 46.3674 40.5709 46.5584 40.5541C47.0519 40.5116 47.549 40.5467 48.0316 40.658C48.9935 40.88 49.8733 41.4057 50.3945 42.2255C50.4078 42.2465 50.4207 42.2671 50.4337 42.2885Z" fill="#E6E6E6"/>
<path d="M50.4093 42.3083C49.3352 41.6996 48.0957 41.4433 46.8669 41.5757C46.6018 41.5995 46.3422 41.6648 46.0976 41.769C45.8626 41.8783 45.6612 42.0482 45.5145 42.2611C45.3737 42.4568 45.2525 42.6733 45.0663 42.8316C44.9698 42.9112 44.8575 42.9696 44.7367 43.003C44.6159 43.0363 44.4894 43.0439 44.3655 43.0252C44.0555 42.9867 43.7779 42.8395 43.5115 42.6862C43.2156 42.516 42.9111 42.3346 42.5621 42.3098C42.5198 42.3068 42.527 42.2417 42.5692 42.2447C43.1763 42.2878 43.6199 42.7708 44.1914 42.9244C44.4581 42.996 44.7481 42.9881 44.9768 42.8188C45.1769 42.6708 45.3021 42.4477 45.443 42.2483C45.5831 42.0385 45.7726 41.8661 45.9951 41.746C46.2336 41.6297 46.4902 41.5546 46.754 41.5239C47.3469 41.4455 47.9484 41.4603 48.5366 41.5679C49.2086 41.687 49.8552 41.9195 50.4484 42.2556C50.4851 42.2764 50.4458 42.3289 50.4093 42.3083Z" fill="white"/>
<path d="M47.26 41.5098C47.2657 41.3016 47.3455 41.1022 47.4853 40.9472C47.6251 40.7922 47.8157 40.6916 48.023 40.6635C48.065 40.658 48.0756 40.7227 48.0336 40.7282C47.8404 40.754 47.6629 40.8477 47.5331 40.9923C47.4032 41.1369 47.3296 41.323 47.3254 41.5169C47.3245 41.559 47.2591 41.5517 47.26 41.5098Z" fill="white"/>
<path d="M45.5728 42.1524C45.8642 42.4642 46.2629 42.6551 46.6895 42.6872C46.7318 42.6904 46.7247 42.7555 46.6824 42.7524C46.2386 42.7181 45.824 42.5186 45.5215 42.1935C45.4927 42.1625 45.5441 42.1216 45.5728 42.1524Z" fill="white"/>
<path d="M49.1605 41.7593C49.1414 41.8394 49.1426 41.923 49.164 42.0025C49.1855 42.082 49.2264 42.155 49.2831 42.2149C49.3123 42.2455 49.2608 42.2864 49.2318 42.256C49.1695 42.1895 49.1244 42.1089 49.1005 42.0211C49.0767 41.9333 49.0748 41.841 49.095 41.7523C49.0962 41.7438 49.1007 41.736 49.1074 41.7306C49.1141 41.7252 49.1227 41.7226 49.1313 41.7232C49.14 41.7242 49.1479 41.7286 49.1533 41.7353C49.1588 41.7421 49.1614 41.7507 49.1605 41.7593Z" fill="white"/>
<path d="M15.7266 39.4174C16.635 38.0462 18.2599 37.0543 19.8961 37.2677C18.5969 38.4999 17.7775 40.1497 17.5829 41.9253C17.5103 42.6103 17.5013 43.3798 17.0089 43.8639C16.7026 44.1652 16.2565 44.2915 15.8259 44.2958C15.3953 44.3002 14.972 44.1949 14.5544 44.0904L14.4498 44.115C14.5195 42.474 14.8183 40.7887 15.7266 39.4174Z" fill="#E6E6E6"/>
<path d="M19.8963 37.3021C18.6293 37.8102 17.5554 38.7026 16.827 39.8527C16.6658 40.0975 16.5444 40.3661 16.4672 40.6485C16.4009 40.9261 16.4106 41.2163 16.4951 41.4889C16.5688 41.7446 16.6739 41.9977 16.6838 42.2668C16.6869 42.4047 16.6606 42.5416 16.6067 42.6686C16.5529 42.7956 16.4726 42.9099 16.3713 43.0039C16.1249 43.2446 15.8063 43.3829 15.49 43.5073C15.1389 43.6455 14.7719 43.7834 14.5108 44.0672C14.4792 44.1016 14.4274 44.0507 14.459 44.0164C14.9132 43.5227 15.638 43.4719 16.164 43.0847C16.4094 42.904 16.6016 42.6486 16.6114 42.3352C16.6199 42.0611 16.5117 41.8 16.4349 41.5417C16.3485 41.277 16.3285 40.9952 16.3768 40.7211C16.4393 40.4356 16.5501 40.1628 16.7046 39.9144C17.0433 39.3496 17.4691 38.8412 17.9665 38.4081C18.5314 37.9105 19.1777 37.5129 19.8773 37.2322C19.9206 37.2149 19.9393 37.2849 19.8963 37.3021Z" fill="white"/>
<path d="M17.0396 39.4686C16.8624 39.3208 16.7436 39.1151 16.7047 38.8882C16.6657 38.6613 16.7091 38.428 16.827 38.23C16.851 38.19 16.9146 38.2252 16.8905 38.2653C16.7804 38.4495 16.74 38.6668 16.7767 38.878C16.8134 39.0892 16.9248 39.2804 17.0907 39.4171C17.1267 39.4468 17.0755 39.4982 17.0396 39.4686Z" fill="white"/>
<path d="M16.4406 41.3641C16.9119 41.3269 17.3518 41.1143 17.6726 40.7686C17.7043 40.7344 17.7561 40.7852 17.7244 40.8195C17.3899 41.1785 16.9316 41.3989 16.4411 41.4365C16.3944 41.44 16.3941 41.3676 16.4406 41.3641Z" fill="white"/>
<path d="M18.5614 38.0018C18.618 38.0732 18.6915 38.1295 18.7754 38.1657C18.8593 38.2018 18.9509 38.2166 19.042 38.2088C19.0887 38.2047 19.0889 38.2771 19.0425 38.2812C18.9419 38.2894 18.8407 38.2729 18.748 38.2331C18.6552 38.1934 18.5736 38.1317 18.5103 38.0534C18.5037 38.0465 18.5 38.0373 18.5 38.0278C18.4999 38.0183 18.5035 38.0092 18.5099 38.0022C18.5167 37.9954 18.5259 37.9915 18.5356 37.9915C18.5452 37.9914 18.5545 37.9951 18.5614 38.0018Z" fill="white"/>
<path d="M22.8673 41.9773C22.8382 41.9807 22.8091 41.9841 22.7797 41.988C22.389 42.0359 22.0029 42.1153 21.6251 42.2254C21.5957 42.2335 21.5661 42.2421 21.5371 42.251C20.6297 42.5259 19.7816 42.9662 19.0357 43.5493C18.7391 43.7816 18.4607 44.0361 18.2029 44.3104C17.8469 44.6893 17.4912 45.1283 17.0434 45.3612C16.997 45.386 16.949 45.408 16.8999 45.4269L14.488 44.2401C14.4839 44.2347 14.4795 44.2298 14.4753 44.2243L14.3769 44.1813C14.3892 44.1662 14.4022 44.1509 14.4146 44.1358C14.4217 44.127 14.4293 44.1185 14.4364 44.1097C14.4413 44.104 14.4462 44.0982 14.4503 44.0927C14.4519 44.0908 14.455 44.0875 14.455 44.0875C14.459 44.082 14.4634 44.0774 14.4673 44.0725C14.5402 43.9863 14.6138 43.9006 14.6882 43.8152L14.6893 43.8143C15.2576 43.1651 15.8855 42.5574 16.586 42.0638C16.6071 42.0489 16.6284 42.0335 16.6506 42.0192C16.9676 41.7985 17.3022 41.6039 17.6511 41.4374C17.8424 41.3469 18.0382 41.266 18.2378 41.1952C18.7537 41.0131 19.2952 40.913 19.8424 40.8984C20.9332 40.8695 22.0212 41.1881 22.8077 41.9207C22.8278 41.9395 22.8474 41.958 22.8673 41.9773Z" fill="#E6E6E6"/>
<path d="M22.8467 42.0051C21.5278 41.6515 20.1305 41.7205 18.8532 42.2024C18.5764 42.3012 18.3169 42.4429 18.0845 42.6222C17.8637 42.8041 17.6958 43.0416 17.5984 43.3099C17.5025 43.5582 17.4334 43.8233 17.2785 44.0441C17.1975 44.156 17.0937 44.2496 16.9739 44.3187C16.854 44.3879 16.7209 44.431 16.5831 44.4453C16.2407 44.4899 15.9027 44.4094 15.5749 44.3192C15.2109 44.2191 14.8345 44.1094 14.4544 44.1795C14.4083 44.188 14.3977 44.1164 14.4437 44.1079C15.1051 43.9858 15.7145 44.3796 16.3687 44.3856C16.6739 44.3884 16.9819 44.2997 17.1793 44.0553C17.3519 43.8416 17.4234 43.5683 17.5183 43.316C17.6095 43.0528 17.764 42.8159 17.9684 42.626C18.191 42.4355 18.4445 42.2841 18.7181 42.1783C19.3302 41.9302 19.9777 41.7796 20.6369 41.7317C21.3889 41.673 22.1455 41.7427 22.8739 41.9379C22.9189 41.95 22.8915 42.0171 22.8467 42.0051Z" fill="white"/>
<path d="M19.2553 42.0231C19.2032 41.7989 19.2328 41.5635 19.339 41.359C19.4451 41.1545 19.6209 40.9942 19.8348 40.9067C19.8781 40.8892 19.9076 40.9554 19.8642 40.973C19.6648 41.0541 19.5011 41.2034 19.4027 41.394C19.3042 41.5846 19.2775 41.804 19.3272 42.0126C19.338 42.0579 19.266 42.0682 19.2553 42.0231Z" fill="white"/>
<path d="M17.6304 43.1776C18.0292 43.4303 18.509 43.5241 18.9742 43.4404C19.0203 43.432 19.0309 43.5037 18.9849 43.512C18.5006 43.5983 18.0014 43.4996 17.587 43.2357C17.5475 43.2105 17.5911 43.1526 17.6304 43.1776Z" fill="white"/>
<path d="M21.3576 41.7638C21.3596 41.8547 21.3843 41.9438 21.4294 42.0229C21.4746 42.102 21.5387 42.1687 21.6162 42.2171C21.6559 42.2418 21.6123 42.2997 21.5728 42.2752C21.4875 42.2214 21.4167 42.1476 21.3667 42.0603C21.3166 41.973 21.2888 41.8748 21.2857 41.7744C21.2846 41.7649 21.2872 41.7554 21.2928 41.7478C21.2985 41.7402 21.3069 41.735 21.3163 41.7333C21.3259 41.7319 21.3356 41.7344 21.3433 41.7401C21.351 41.7458 21.3562 41.7543 21.3576 41.7638Z" fill="white"/>
<path d="M22.1913 29.1368C22.2516 29.0771 22.298 29.005 22.3272 28.9256C22.3565 28.8461 22.3679 28.7612 22.3606 28.6769C22.3533 28.5926 22.3275 28.5109 22.2851 28.4376C22.2427 28.3643 22.1846 28.3011 22.115 28.2525L23.0643 23.6798L22.0401 24.0014L21.2763 28.4251C21.2021 28.5469 21.1753 28.6916 21.2011 28.8318C21.2269 28.9719 21.3034 29.0978 21.4162 29.1855C21.529 29.2732 21.6702 29.3167 21.8131 29.3077C21.9559 29.2988 22.0905 29.2379 22.1913 29.1368Z" fill="#FFB6B6"/>
<path d="M24.3856 16.9137L23.7512 16.4371C23.7512 16.4371 23.1915 16.3977 23.0924 17.4022C22.9933 18.4067 22.3726 22.2621 22.3726 22.2621L21.4018 26.7374L22.7457 27.031L23.7855 22.2014L24.8264 18.8695L24.3856 16.9137Z" fill="#E6E6E6"/>
<path d="M23.9023 25.1945L20.859 22.8393C20.8116 22.8026 20.7808 22.7486 20.7733 22.6892C20.7658 22.6299 20.7823 22.57 20.8192 22.5228L22.8898 19.8723C22.9268 19.8251 22.981 19.7945 23.0406 19.787C23.1003 19.7796 23.1604 19.796 23.2079 19.8327L26.2512 22.1878C26.2986 22.2246 26.3294 22.2786 26.3369 22.3379C26.3444 22.3973 26.3279 22.4572 26.291 22.5044L24.2204 25.1549C24.1834 25.2021 24.1292 25.2327 24.0696 25.2402C24.0099 25.2476 23.9498 25.2312 23.9023 25.1945Z" fill="#3F3D56"/>
<path d="M23.8856 24.9508L21.1004 22.7954C21.0583 22.7628 21.031 22.7148 21.0243 22.6621C21.0177 22.6094 21.0324 22.5563 21.0651 22.5143L22.9422 20.1116C22.975 20.0697 23.0232 20.0424 23.0761 20.0359C23.1291 20.0293 23.1825 20.0438 23.2246 20.0764L26.0098 22.2318C26.0519 22.2644 26.0792 22.3123 26.0859 22.365C26.0925 22.4177 26.0778 22.4709 26.0451 22.5129L24.168 24.9156C24.1352 24.9575 24.087 24.9847 24.0341 24.9913C23.9811 24.9979 23.9277 24.9833 23.8856 24.9508Z" fill="white"/>
<path d="M21.4655 22.7343C21.455 22.7262 21.4482 22.7142 21.4465 22.701C21.4449 22.6879 21.4485 22.6746 21.4567 22.6641L22.4037 21.452C22.4119 21.4415 22.4239 21.4347 22.4371 21.433C22.4437 21.4322 22.4503 21.4327 22.4567 21.4344C22.4631 21.4361 22.4691 21.4391 22.4743 21.4432C22.4795 21.4472 22.4839 21.4522 22.4871 21.4579C22.4904 21.4636 22.4925 21.4699 22.4933 21.4765C22.4941 21.483 22.4937 21.4896 22.4919 21.496C22.4902 21.5023 22.4872 21.5082 22.4831 21.5134L21.5361 22.7256C21.5279 22.736 21.5159 22.7428 21.5027 22.7445C21.4894 22.7461 21.4761 22.7425 21.4655 22.7343Z" fill="#E4E4E4"/>
<path d="M21.6225 22.8557C21.612 22.8476 21.6051 22.8356 21.6035 22.8224C21.6018 22.8093 21.6055 22.796 21.6137 22.7855L22.5606 21.5734C22.5688 21.5629 22.5808 21.5561 22.5941 21.5544C22.6073 21.5528 22.6207 21.5564 22.6312 21.5646C22.6418 21.5727 22.6486 21.5847 22.6503 21.5979C22.6519 21.6111 22.6482 21.6243 22.6401 21.6348L21.6931 22.847C21.6849 22.8574 21.6729 22.8642 21.6596 22.8659C21.6464 22.8675 21.633 22.8639 21.6225 22.8557Z" fill="#E4E4E4"/>
<path d="M22.3159 22.2905C22.3054 22.2824 22.2986 22.2704 22.2969 22.2572C22.2952 22.244 22.2989 22.2307 22.3071 22.2202L22.7176 21.6948C22.7216 21.6896 22.7267 21.6853 22.7324 21.682C22.7381 21.6787 22.7445 21.6766 22.751 21.6758C22.7576 21.675 22.7643 21.6755 22.7706 21.6772C22.777 21.6789 22.783 21.6819 22.7882 21.686C22.7934 21.69 22.7978 21.695 22.8011 21.7008C22.8043 21.7065 22.8065 21.7128 22.8073 21.7193C22.8081 21.7258 22.8076 21.7325 22.8058 21.7388C22.8041 21.7452 22.8011 21.7511 22.797 21.7563L22.3865 22.2817C22.3783 22.2922 22.3663 22.299 22.353 22.3007C22.3398 22.3023 22.3265 22.2987 22.3159 22.2905Z" fill="#E4E4E4"/>
<path d="M22.5275 23.3216C22.517 23.3135 22.5102 23.3015 22.5085 23.2883C22.5069 23.2752 22.5105 23.2619 22.5187 23.2514L24.0136 21.3378C24.0177 21.3326 24.0227 21.3283 24.0285 21.325C24.0342 21.3218 24.0406 21.3197 24.0471 21.3189C24.0537 21.3181 24.0603 21.3185 24.0667 21.3203C24.0731 21.322 24.079 21.325 24.0843 21.329C24.0895 21.3331 24.0938 21.3381 24.0971 21.3438C24.1004 21.3495 24.1025 21.3558 24.1033 21.3623C24.1041 21.3689 24.1036 21.3755 24.1019 21.3818C24.1001 21.3882 24.0971 21.3941 24.0931 21.3993L22.5981 23.3129C22.5899 23.3233 22.5779 23.3301 22.5647 23.3318C22.5514 23.3334 22.5381 23.3298 22.5275 23.3216Z" fill="#E4E4E4"/>
<path d="M22.6845 23.4431C22.674 23.435 22.6671 23.423 22.6655 23.4098C22.6638 23.3966 22.6675 23.3833 22.6756 23.3728L24.1706 21.4593C24.1747 21.4541 24.1797 21.4497 24.1854 21.4465C24.1912 21.4432 24.1975 21.4411 24.2041 21.4403C24.2106 21.4395 24.2173 21.44 24.2237 21.4417C24.23 21.4435 24.236 21.4464 24.2412 21.4505C24.2464 21.4545 24.2508 21.4595 24.2541 21.4653C24.2573 21.471 24.2594 21.4773 24.2602 21.4838C24.2611 21.4903 24.2606 21.4969 24.2588 21.5033C24.2571 21.5096 24.2541 21.5156 24.25 21.5208L22.7551 23.4343C22.7469 23.4448 22.7348 23.4516 22.7216 23.4532C22.7084 23.4549 22.695 23.4513 22.6845 23.4431Z" fill="#E4E4E4"/>
<path d="M23.0407 23.7188C23.0302 23.7106 23.0234 23.6987 23.0217 23.6855C23.0201 23.6723 23.0237 23.659 23.0319 23.6485L24.5269 21.735C24.5309 21.7298 24.536 21.7254 24.5417 21.7222C24.5474 21.7189 24.5538 21.7168 24.5603 21.716C24.5669 21.7152 24.5735 21.7157 24.5799 21.7174C24.5863 21.7192 24.5923 21.7221 24.5975 21.7262C24.6027 21.7302 24.607 21.7352 24.6103 21.741C24.6136 21.7467 24.6157 21.753 24.6165 21.7595C24.6173 21.766 24.6168 21.7726 24.6151 21.779C24.6133 21.7853 24.6104 21.7913 24.6063 21.7964L23.1113 23.71C23.1031 23.7205 23.0911 23.7273 23.0779 23.7289C23.0646 23.7306 23.0513 23.7269 23.0407 23.7188Z" fill="#E4E4E4"/>
<path d="M23.1977 23.8403C23.1872 23.8321 23.1803 23.8201 23.1787 23.807C23.177 23.7938 23.1807 23.7805 23.1889 23.77L24.6838 21.8564C24.6879 21.8512 24.6929 21.8469 24.6987 21.8436C24.7044 21.8404 24.7107 21.8383 24.7173 21.8375C24.7238 21.8367 24.7305 21.8371 24.7369 21.8389C24.7432 21.8406 24.7492 21.8436 24.7544 21.8476C24.7596 21.8517 24.764 21.8567 24.7673 21.8624C24.7705 21.8681 24.7726 21.8744 24.7735 21.881C24.7743 21.8875 24.7738 21.8941 24.772 21.9004C24.7703 21.9068 24.7673 21.9127 24.7633 21.9179L23.2683 23.8315C23.2601 23.8419 23.2481 23.8488 23.2348 23.8504C23.2216 23.8521 23.2082 23.8484 23.1977 23.8403Z" fill="#E4E4E4"/>
<path d="M23.554 24.116C23.5434 24.1078 23.5366 24.0958 23.5349 24.0826C23.5333 24.0695 23.537 24.0562 23.5451 24.0457L25.0401 22.1321C25.0441 22.1269 25.0492 22.1226 25.0549 22.1193C25.0607 22.1161 25.067 22.114 25.0736 22.1132C25.0801 22.1124 25.0868 22.1128 25.0931 22.1146C25.0995 22.1163 25.1055 22.1193 25.1107 22.1233C25.1159 22.1274 25.1203 22.1324 25.1235 22.1381C25.1268 22.1438 25.1289 22.1501 25.1297 22.1567C25.1305 22.1632 25.1301 22.1698 25.1283 22.1761C25.1266 22.1825 25.1236 22.1884 25.1195 22.1936L23.6246 24.1072C23.6164 24.1176 23.6043 24.1244 23.5911 24.1261C23.5779 24.1277 23.5645 24.1241 23.554 24.116Z" fill="#E4E4E4"/>
<path d="M23.7109 24.2374C23.7004 24.2293 23.6935 24.2173 23.6919 24.2041C23.6902 24.1909 23.6939 24.1776 23.7021 24.1671L25.197 22.2536C25.2052 22.2432 25.2173 22.2364 25.2305 22.2348C25.2437 22.2331 25.257 22.2368 25.2675 22.2449C25.278 22.2531 25.2849 22.265 25.2866 22.2782C25.2882 22.2913 25.2846 22.3046 25.2765 22.3151L23.7815 24.2286C23.7733 24.2391 23.7613 24.2459 23.748 24.2476C23.7348 24.2492 23.7215 24.2456 23.7109 24.2374Z" fill="#E4E4E4"/>
<path d="M21.2123 26.4598C21.2238 26.4598 21.233 26.4506 21.233 26.4392C21.233 26.4278 21.2238 26.4186 21.2123 26.4186C21.2009 26.4186 21.1917 26.4278 21.1917 26.4392C21.1917 26.4506 21.2009 26.4598 21.2123 26.4598Z" fill="white"/>
<path d="M24.2225 12.2926C24.1499 12.6811 24.0307 13.0596 23.8676 13.42C22.9337 15.3863 25.5933 14.7454 26.5438 14.7454C27.5829 14.7454 28.5772 15.2892 28.4253 12.8727C28.3605 11.8404 27.5829 11 26.5438 11C25.6561 11 24.4082 11.3927 24.2225 12.2926Z" fill="#2F2E41"/>
<path d="M27.5124 41.1314H26.627L26.2057 37.7325H27.5124V41.1314Z" fill="#FFB6B6"/>
<path d="M27.9797 42.6581H27.3448L27.2314 42.0615L26.9412 42.6581H25.2572C25.1765 42.6581 25.0978 42.6324 25.0328 42.5848C24.9678 42.5372 24.9198 42.4702 24.8958 42.3935C24.8717 42.3168 24.873 42.2344 24.8993 42.1585C24.9256 42.0826 24.9756 42.017 25.0421 41.9713L26.3869 41.0469V40.4438L27.8013 40.5278L27.9797 42.6581Z" fill="#2F2E41"/>
<path d="M32.7724 40.0193L32.0619 40.5452L29.6861 38.068L30.7346 37.2919L32.7724 40.0193Z" fill="#FFB6B6"/>
<path d="M34.0628 40.9669L33.5533 41.344L33.1046 40.9326L33.2294 41.5837L31.8781 42.5838C31.8133 42.6318 31.7348 42.6579 31.6541 42.6583C31.5734 42.6587 31.4946 42.6334 31.4294 42.5861C31.3641 42.5389 31.3158 42.472 31.2913 42.3955C31.2669 42.3189 31.2678 42.2366 31.2937 42.1605L31.8186 40.62L31.457 40.136L32.6424 39.3634L34.0628 40.9669Z" fill="#2F2E41"/>
<path d="M24.6127 25.4887L28.8155 24.8372L27.9797 22.3347H24.6127V25.4887Z" fill="#FFB6B6"/>
<path d="M28.5432 23.595C28.5432 23.595 30.2231 25.0395 29.448 29.1573L28.5017 33.1921L31.0798 37.6467L29.7689 38.3584L26.5919 33.9637L25.1382 30.5697L24.3692 24.6215L28.5432 23.595Z" fill="#2F2E41"/>
<path d="M25.9395 31.537L25.8384 33.0944L26.1342 37.7061L27.6026 38.2093L27.8807 33.4841L25.9395 31.537Z" fill="#2F2E41"/>
<path d="M25.488 15.2637L27.1126 15.3268L27.7601 16.3964L29.2373 16.6835L28.3554 21.1237L28.5176 23.6511L27.0467 23.6421C25.9866 23.6357 24.9615 24.019 24.1679 24.7185L24.2119 21.4378L23.5792 18.9889L23.7214 16.4209L24.9098 16.2731L25.488 15.2637Z" fill="#E6E6E6"/>
<path d="M26.3881 14.7449C27.2325 14.7449 27.9171 14.0636 27.9171 13.2231C27.9171 12.3827 27.2325 11.7014 26.3881 11.7014C25.5436 11.7014 24.8591 12.3827 24.8591 13.2231C24.8591 14.0636 25.5436 14.7449 26.3881 14.7449Z" fill="#FFB6B6"/>
<path d="M25.3497 11.6719C25.6176 11.5093 25.9245 11.4214 26.2383 11.4173C26.5521 11.4131 26.8612 11.493 27.1333 11.6485C27.4055 11.804 27.6306 12.0294 27.7853 12.3011C27.94 12.5728 28.0184 12.8809 28.0125 13.1932C27.2334 13.3879 26.4149 13.5369 25.584 13.2398L25.3878 12.7618L25.2721 13.2401C25.0191 13.343 24.7654 13.4301 24.5118 13.2391C24.5014 12.9277 24.5733 12.6191 24.7204 12.3441C24.8674 12.0691 25.0844 11.8373 25.3497 11.6719Z" fill="#2F2E41"/>
<path d="M28.9545 26.7191L29.1606 28.5808C29.175 28.6273 29.2039 28.6679 29.2432 28.6968C29.2825 28.7257 29.33 28.7413 29.3788 28.7413H30.3289C30.3778 28.7413 30.4253 28.7257 30.4646 28.6968C30.5039 28.6679 30.5328 28.6273 30.5472 28.5808L30.7179 27.1539C30.7672 27.178 30.8215 27.19 30.8764 27.1891C30.9312 27.1882 30.9851 27.1744 31.0336 27.1487C31.082 27.123 31.1236 27.0862 31.155 27.0414C31.1864 26.9966 31.2066 26.9451 31.2141 26.8909C31.2215 26.8368 31.216 26.7817 31.1979 26.7302C31.1798 26.6786 31.1496 26.6321 31.1099 26.5944C31.0702 26.5567 31.022 26.5289 30.9694 26.5133C30.9168 26.4977 30.8613 26.4948 30.8073 26.5048C30.786 26.4797 30.7595 26.4596 30.7296 26.4458C30.6996 26.4321 30.6671 26.425 30.6341 26.425H29.1728C29.137 26.4251 29.1018 26.4334 29.0699 26.4494C29.038 26.4654 29.0103 26.4887 28.9891 26.5173C28.9679 26.5459 28.9537 26.5791 28.9477 26.6141C28.9417 26.6492 28.944 26.6852 28.9545 26.7191ZM30.7477 27.0574L30.8523 26.7191C30.8644 26.6801 30.8656 26.6385 30.8558 26.5989C30.8602 26.5986 30.8644 26.5975 30.869 26.5975C30.9346 26.5975 30.9976 26.6235 31.044 26.6697C31.0905 26.7159 31.1165 26.7786 31.1165 26.8439C31.1165 26.9093 31.0905 26.972 31.044 27.0182C30.9976 27.0644 30.9346 27.0903 30.869 27.0903C30.8264 27.0901 30.7846 27.0787 30.7477 27.0574Z" fill="#6C63FF"/>
<path d="M30.3872 28.7425C30.3272 28.6825 30.2812 28.6102 30.2524 28.5306C30.2235 28.451 30.2126 28.3661 30.2203 28.2818C30.228 28.1975 30.2542 28.116 30.297 28.0429C30.3398 27.9697 30.3982 27.9069 30.4681 27.8586L29.5421 23.2812L30.5646 23.6079L31.3058 28.0355C31.3794 28.1577 31.4055 28.3025 31.379 28.4425C31.3525 28.5825 31.2753 28.708 31.162 28.7951C31.0488 28.8823 30.9074 28.925 30.7646 28.9154C30.6218 28.9057 30.4875 28.8442 30.3872 28.7425Z" fill="#FFB6B6"/>
<path d="M28.6029 17.1601L29.2373 16.6835C29.2373 16.6835 29.797 16.6441 29.8961 17.6486C29.9952 18.6531 30.6159 22.5085 30.6159 22.5085L31.5867 26.9838L30.2428 27.2774L29.203 22.4478L28.1621 19.1159L28.6029 17.1601Z" fill="#E6E6E6"/>
<path d="M23.1272 21.327C23.3256 21.327 23.4863 21.167 23.4863 20.9696C23.4863 20.7722 23.3256 20.6121 23.1272 20.6121C22.9289 20.6121 22.7681 20.7722 22.7681 20.9696C22.7681 21.167 22.9289 21.327 23.1272 21.327Z" fill="#6C63FF"/>
<path d="M11.6749 45.2779H12.4234L12.7795 42.4047H11.6748L11.6749 45.2779Z" fill="#FFB6B6"/>
<path d="M11.484 45.0347H11.6947L12.5172 44.7018L12.958 45.0346C13.2071 45.0346 13.4461 45.1331 13.6222 45.3085C13.7984 45.4838 13.8973 45.7216 13.8974 45.9695V45.9999L11.4841 46L11.484 45.0347Z" fill="#2F2E41"/>
<path d="M14.5753 44.8085L15.3054 44.9726L16.2886 42.248L15.2111 42.0059L14.5753 44.8085Z" fill="#FFB6B6"/>
<path d="M14.4429 44.5294L14.6484 44.5756L15.5244 44.4312L15.8807 44.8525C16.1237 44.9072 16.335 45.0556 16.468 45.2653C16.601 45.4749 16.6449 45.7285 16.5901 45.9704L16.5834 46L14.2293 45.471L14.4429 44.5294Z" fill="#2F2E41"/>
<path d="M10.3047 30.4985L10.9815 38.0455C10.9815 38.0455 10.728 42.5764 11.5462 44.1707H12.733L13.3206 37.6317L13.3943 33.2427L15.9386 36.9456L14.3181 44.0638L15.7787 44.1938L18.4083 36.4688L15.5193 29.2169L10.3047 30.4985Z" fill="#2F2E41"/>
<path d="M11.0136 18.4801C11.9775 18.4801 12.759 17.7023 12.759 16.7429C12.759 15.7835 11.9775 15.0057 11.0136 15.0057C10.0496 15.0057 9.26813 15.7835 9.26813 16.7429C9.26813 17.7023 10.0496 18.4801 11.0136 18.4801Z" fill="#FFB8B8"/>
<path d="M14.0819 20.1355L12.65 19.524L11.9529 18.7881L10.2115 19.0677L9.74948 19.8561L8.25381 21.2403L10.0062 29.1261L9.9531 30.8485C9.9531 30.8485 11.0747 31.351 15.9386 30.194C15.9969 30.1801 15.8748 30.1193 15.8748 30.1193L14.0819 20.1355Z" fill="#3F3D56"/>
<path d="M9.19858 17.7286C9.18642 17.7121 9.17437 17.6954 9.16245 17.6786C9.15765 17.6887 9.15384 17.6992 9.14835 17.709L9.19858 17.7286Z" fill="#2F2E41"/>
<path d="M12.7498 15.4722C12.6331 15.2193 12.4251 15.0192 12.1671 14.9119C11.9113 14.8092 11.6255 14.8095 11.3699 14.9126C11.1392 14.7675 10.8828 14.6525 10.6128 14.6382C10.3428 14.624 10.0573 14.7237 9.89089 14.9431C9.85373 15.0011 9.81152 15.0556 9.76476 15.1062C9.63101 15.2295 9.42775 15.2117 9.24997 15.1865C9.32971 15.2545 9.40947 15.3225 9.48925 15.3906C9.39273 15.4157 9.29619 15.4408 9.19965 15.4659C9.3123 15.5339 9.42494 15.6018 9.53757 15.6698C9.21056 15.8652 9.06194 16.2916 9.1012 16.6788C9.13834 17.0454 9.31618 17.3807 9.52877 17.6786C9.61358 17.5005 9.59531 17.2874 9.59391 17.0868C9.59245 16.8748 9.63012 16.6341 9.80078 16.5157C9.9159 16.4357 10.0639 16.4322 10.2027 16.4329C10.903 16.4368 11.6024 16.4802 12.2977 16.5631C12.3921 16.5672 12.484 16.5937 12.5659 16.6405C12.7197 16.7449 12.7496 16.9604 12.7651 17.1494C12.8463 16.8373 12.8861 16.516 12.8833 16.1936C12.8902 15.9465 12.8447 15.7007 12.7498 15.4722Z" fill="#2F2E41"/>
<path d="M13.2932 35.789C14.8105 35.789 16.0404 34.5648 16.0404 33.0548C16.0404 31.5447 14.8105 30.3206 13.2932 30.3206C11.776 30.3206 10.546 31.5447 10.546 33.0548C10.546 34.5648 11.776 35.789 13.2932 35.789Z" fill="white"/>
<path d="M13.2932 30.2598C13.152 30.2598 13.011 30.2704 12.8714 30.2914C12.7999 30.3018 12.7304 30.3151 12.6614 30.3315C12.1546 30.4478 11.6902 30.7019 11.32 31.0656C10.9499 31.4292 10.6885 31.8881 10.5651 32.3909C10.4417 32.8938 10.4611 33.4209 10.6212 33.9134C10.7812 34.4059 11.0756 34.8445 11.4715 35.1802C11.5186 35.2197 11.5662 35.258 11.6156 35.2944C11.972 35.5589 12.3864 35.7354 12.8247 35.8093C13.2631 35.8832 13.7127 35.8525 14.1368 35.7196C14.5609 35.5868 14.9472 35.3556 15.2639 35.0452C15.5806 34.7347 15.8188 34.3538 15.9587 33.9338C16.0987 33.5138 16.1364 33.0668 16.0688 32.6295C16.0013 32.1922 15.8303 31.7771 15.5701 31.4183C15.3098 31.0596 14.9677 30.7675 14.5719 30.5661C14.176 30.3647 13.7378 30.2597 13.2932 30.2598ZM13.2932 35.7283C12.7221 35.7289 12.1658 35.5472 11.706 35.21C11.6559 35.1735 11.6077 35.1358 11.5607 35.0957C11.175 34.7719 10.8888 34.3464 10.7349 33.8681C10.581 33.3898 10.5658 32.878 10.6908 32.3914C10.8159 31.9048 11.0762 31.4632 11.4419 31.1171C11.8076 30.771 12.2639 30.5346 12.7585 30.4348C12.8268 30.4208 12.8952 30.4099 12.9648 30.4014C13.0738 30.388 13.1834 30.3813 13.2932 30.3813C14.0056 30.3813 14.6889 30.663 15.1926 31.1644C15.6964 31.6658 15.9794 32.3458 15.9794 33.0548C15.9794 33.7638 15.6964 34.4438 15.1926 34.9452C14.6889 35.4466 14.0056 35.7283 13.2932 35.7283Z" fill="#3F3D56"/>
<path d="M11.9458 32.5079H14.6407C14.7394 32.5079 14.8194 32.4283 14.8194 32.33V32.3213C14.8194 32.223 14.7394 32.1434 14.6407 32.1434H11.9458C11.847 32.1434 11.767 32.223 11.767 32.3213V32.33C11.767 32.4283 11.847 32.5079 11.9458 32.5079Z" fill="#6C63FF"/>
<path d="M11.9458 33.2371H14.6407C14.7394 33.2371 14.8194 33.1574 14.8194 33.0591V33.0504C14.8194 32.9522 14.7394 32.8725 14.6407 32.8725H11.9458C11.847 32.8725 11.767 32.9522 11.767 33.0504V33.0591C11.767 33.1574 11.847 33.2371 11.9458 33.2371Z" fill="#6C63FF"/>
<path d="M11.9458 33.9662H14.6407C14.7394 33.9662 14.8194 33.8865 14.8194 33.7883V33.7795C14.8194 33.6813 14.7394 33.6016 14.6407 33.6016H11.9458C11.847 33.6016 11.767 33.6813 11.767 33.7795V33.7883C11.767 33.8865 11.847 33.9662 11.9458 33.9662Z" fill="#6C63FF"/>
<path d="M44.0283 45.1852L43.2435 45.1851L42.8701 42.1724H44.0284L44.0283 45.1852Z" fill="#9E616A"/>
<path d="M40.3154 45.1852L39.5307 45.1851L39.1573 42.1724H40.3156L40.3154 45.1852Z" fill="#9E616A"/>
<path d="M40.3431 46L37.9298 45.9999V45.9695C37.9298 45.7216 38.0288 45.4838 38.2049 45.3085C38.3811 45.1331 38.62 45.0346 38.8691 45.0346L39.31 44.7018L40.1325 45.0347H40.3431V46Z" fill="#2F2E41"/>
<path d="M44.1565 46L41.7432 45.9999V45.9695C41.7433 45.7216 41.8422 45.4838 42.0184 45.3085C42.1945 45.1331 42.4335 45.0346 42.6826 45.0346L43.1235 44.7018L43.9459 45.0347H44.1566L44.1565 46Z" fill="#2F2E41"/>
<path d="M39.5456 27.3547L38.3529 34.5829L38.6775 35.66L38.2516 36.4229L38.8771 43.1224L38.6232 43.6788L39.3326 44.1142H40.7761L40.8527 38.0491L41.2093 37.1586V36.6678L41.9352 32.9694L42.0688 38.1488L42.28 39.0406L42.1026 39.6757L42.3343 40.1206L42.9499 44.2464H44.5686L44.4434 43.2865C44.5844 43.2155 44.6976 43.0998 44.7654 42.9577C44.8331 42.8156 44.8515 42.6551 44.8176 42.5015L44.7248 42.0808L44.936 40.8368L45.3207 33.8969L45.2122 28.2972L43.3187 26.8561L39.5456 27.3547Z" fill="#2F2E41"/>
<path d="M42.28 18.0729C43.1105 18.0729 43.7838 17.4027 43.7838 16.5761C43.7838 15.7495 43.1105 15.0793 42.28 15.0793C41.4494 15.0793 40.7761 15.7495 40.7761 16.5761C40.7761 17.4027 41.4494 18.0729 42.28 18.0729Z" fill="#9E616A"/>
<path d="M38.9942 30.2231C39.0596 30.1558 39.1095 30.075 39.1402 29.9865C39.1708 29.898 39.1817 29.8038 39.1718 29.7106C39.162 29.6175 39.1318 29.5276 39.0833 29.4474C39.0348 29.3671 38.9692 29.2984 38.8911 29.2461L39.4759 27.045L38.3492 27.4222L37.9666 29.4545C37.887 29.5909 37.8605 29.7516 37.8919 29.9061C37.9234 30.0607 38.0108 30.1983 38.1374 30.2931C38.2641 30.3878 38.4213 30.433 38.5792 30.4201C38.7371 30.4072 38.8847 30.3371 38.9942 30.2231Z" fill="#9E616A"/>
<path d="M39.6096 19.6555L39.3678 19.6055L39.1615 19.7192C39.1615 19.7192 38.5854 20.4837 38.5854 21.1845C38.5854 21.8854 37.8813 28.6387 37.8813 28.6387L39.1615 29.2121L40.1858 23.9241L39.6096 19.6555Z" fill="#E6E6E6"/>
<path d="M43.5969 15.4787C43.5969 15.4787 43.9903 14.7303 43.1249 14.6623C43.1249 14.6623 42.3872 13.9962 41.6353 14.5405C41.6353 14.5405 41.2251 14.5405 41.0009 15.0025C41.0009 15.0025 40.6783 14.8807 40.6074 15.2066C40.6074 15.2066 40.3714 15.8869 40.6074 16.4992C40.8434 17.1115 40.9218 17.1796 40.9218 17.1796C40.9218 17.1796 40.534 15.8958 41.4781 15.8278C42.4221 15.7597 43.4786 15.1725 43.5573 15.9209C43.636 16.6693 43.7544 16.8537 43.7544 16.8537C43.7544 16.8537 44.5016 15.7848 43.5969 15.4787Z" fill="#2F2E41"/>
<path d="M49.0905 36.4229C48.9769 36.4231 48.8674 36.3815 48.7828 36.3061L44.2316 32.274C44.1399 32.1925 44.0844 32.0782 44.0773 31.9561C44.0702 31.834 44.112 31.714 44.1936 31.6225L47.1091 28.3627C47.1909 28.2715 47.3058 28.2162 47.4285 28.2091C47.5512 28.202 47.6718 28.2436 47.7637 28.3249L52.3149 32.3571C52.4067 32.4384 52.4623 32.5528 52.4694 32.6749C52.4765 32.7971 52.4346 32.917 52.3529 33.0084L49.4373 36.2682C49.397 36.3136 49.348 36.3506 49.2931 36.377C49.2383 36.4034 49.1788 36.4188 49.1179 36.4221C49.1088 36.4227 49.0996 36.4229 49.0905 36.4229Z" fill="white"/>
<path d="M49.0904 36.4526C48.9696 36.4527 48.853 36.4085 48.763 36.3283L44.2118 32.2962C44.1142 32.2095 44.0551 32.0878 44.0476 31.9578C44.04 31.8278 44.0845 31.7002 44.1714 31.6028L47.0869 28.343C47.174 28.2459 47.2962 28.1871 47.4268 28.1795C47.5574 28.172 47.6857 28.2163 47.7835 28.3027L52.3347 32.3349C52.4324 32.4215 52.4916 32.5432 52.4992 32.6732C52.5067 32.8032 52.4621 32.9309 52.3752 33.0282L49.4596 36.288C49.4166 36.3363 49.3645 36.3756 49.3061 36.4037C49.2478 36.4319 49.1844 36.4482 49.1197 36.4518C49.1099 36.4523 49.1001 36.4526 49.0904 36.4526ZM47.4556 28.2972C47.4028 28.2971 47.3505 28.3082 47.3023 28.3297C47.2541 28.3512 47.211 28.3826 47.1759 28.4219L44.2604 31.6817C44.1945 31.7555 44.1607 31.8523 44.1665 31.9509C44.1722 32.0495 44.217 32.1418 44.2911 32.2075L48.8423 36.2397C48.879 36.2722 48.9217 36.2972 48.9682 36.3133C49.0146 36.3294 49.0637 36.3362 49.1128 36.3333C49.1618 36.3305 49.2099 36.3181 49.2541 36.2967C49.2983 36.2754 49.3379 36.2456 49.3706 36.2091L52.2861 32.9493C52.3521 32.8755 52.3859 32.7787 52.3802 32.6801C52.3744 32.5815 52.3296 32.4892 52.2554 32.4235L47.7042 28.3913C47.6358 28.3306 47.5473 28.2971 47.4556 28.2972Z" fill="#3F3D56"/>
<path d="M50.7408 33.3357C50.6917 33.3358 50.6442 33.3178 50.6075 33.2853L47.035 30.1202C47.0153 30.1027 46.9991 30.0816 46.9876 30.058C46.976 30.0344 46.9693 30.0087 46.9677 29.9825C46.9661 29.9563 46.9697 29.93 46.9784 29.9052C46.987 29.8803 47.0005 29.8575 47.0181 29.8378C47.0356 29.8182 47.0569 29.8022 47.0807 29.7908C47.1045 29.7794 47.1303 29.7727 47.1566 29.7713C47.183 29.7698 47.2094 29.7735 47.2343 29.7822C47.2592 29.7909 47.2821 29.8044 47.3018 29.8219L50.8743 32.987C50.9047 33.0139 50.9262 33.0494 50.9358 33.0887C50.9455 33.128 50.9429 33.1694 50.9284 33.2072C50.9139 33.245 50.8882 33.2776 50.8547 33.3005C50.8212 33.3235 50.7815 33.3357 50.7408 33.3357Z" fill="#6C63FF"/>
<path d="M50.0594 34.0976C50.0102 34.0976 49.9628 34.0797 49.9261 34.0471L46.3536 30.882C46.3339 30.8646 46.3179 30.8434 46.3064 30.8198C46.295 30.7962 46.2883 30.7706 46.2867 30.7445C46.2852 30.7183 46.2889 30.6921 46.2975 30.6673C46.3062 30.6425 46.3197 30.6197 46.3372 30.6001C46.3547 30.5806 46.3759 30.5646 46.3996 30.5532C46.4233 30.5418 46.4491 30.5351 46.4754 30.5336C46.5017 30.5321 46.528 30.5357 46.5529 30.5443C46.5778 30.553 46.6007 30.5664 46.6204 30.5838L50.1929 33.7489C50.2233 33.7758 50.2447 33.8113 50.2544 33.8506C50.2641 33.8899 50.2615 33.9312 50.247 33.9691C50.2325 34.0069 50.2068 34.0394 50.1733 34.0624C50.1398 34.0853 50.1001 34.0976 50.0594 34.0976Z" fill="#6C63FF"/>
<path d="M49.378 34.8595C49.3288 34.8596 49.2813 34.8416 49.2447 34.809L45.6721 31.644C45.6524 31.6266 45.6364 31.6054 45.6248 31.5818C45.6133 31.5582 45.6066 31.5326 45.6051 31.5064C45.6035 31.4802 45.6072 31.454 45.6159 31.4292C45.6245 31.4044 45.638 31.3815 45.6555 31.3619C45.6731 31.3423 45.6943 31.3264 45.718 31.315C45.7418 31.3035 45.7675 31.2969 45.7938 31.2954C45.8202 31.2939 45.8465 31.2975 45.8714 31.3062C45.8963 31.3148 45.9193 31.3283 45.9389 31.3457L49.5114 34.5108C49.5418 34.5377 49.5633 34.5732 49.5729 34.6125C49.5826 34.6519 49.58 34.6932 49.5655 34.731C49.5511 34.7688 49.5254 34.8014 49.4919 34.8243C49.4584 34.8473 49.4186 34.8596 49.378 34.8595Z" fill="#6C63FF"/>
<path d="M45.2925 30.353C45.2467 30.2712 45.2194 30.1804 45.2126 30.087C45.2058 29.9936 45.2197 29.8998 45.2533 29.8123C45.2869 29.7248 45.3393 29.6457 45.4069 29.5806C45.4746 29.5154 45.5557 29.4658 45.6447 29.4353L45.6485 27.1586L46.6398 27.8116L46.4841 29.8734C46.5258 30.0256 46.5099 30.1876 46.4396 30.3289C46.3692 30.4702 46.2492 30.5809 46.1023 30.64C45.9554 30.6991 45.7919 30.7025 45.6426 30.6496C45.4934 30.5968 45.3688 30.4912 45.2925 30.353Z" fill="#9E616A"/>
<path d="M45.3841 20.2793L45.827 19.8545L46.1523 20.0882C46.1523 20.0882 46.4723 20.4704 46.7284 21.6172C46.9844 22.764 46.7284 29.0714 46.7284 29.0714L45.3201 28.8803L45.5121 25.5673L44.936 22.764L45.3841 20.2793Z" fill="#E6E6E6"/>
<path d="M46.038 19.9582L44.5461 19.2488L43.5331 18.3137L41.686 18.3L41.0901 19.0709L39.517 19.6028L39.7792 25.0013L39.6005 25.4164C39.6005 25.4164 39.725 25.5284 39.7819 25.591C39.8388 25.6537 39.7033 26.1779 39.7033 26.1779L39.6269 26.7483L39.8388 26.899L39.5633 27.223L39.4949 27.7335C39.4949 27.7335 44.3043 26.5438 45.2131 28.5147C45.2611 28.6189 45.1428 27.6011 45.1428 27.6011L45.0246 26.8561L45.1419 26.1874L45.3207 26.0095L45.0209 25.7111L45.2131 24.2953L46.038 19.9582Z" fill="#3F3D56"/>
<path d="M12.2031 31.9263C12.2402 31.8328 12.2561 31.7322 12.2499 31.6319C12.2437 31.5315 12.2154 31.4337 12.1671 31.3454C12.1188 31.257 12.0516 31.1803 11.9703 31.1206C11.889 31.0609 11.7955 31.0197 11.6964 30.9999L11.365 28.5777L10.4041 29.4137L10.8661 31.5857C10.8436 31.7535 10.8838 31.9237 10.979 32.0641C11.0742 32.2044 11.2178 32.3051 11.3826 32.3471C11.5474 32.3891 11.722 32.3694 11.8732 32.2919C12.0244 32.2143 12.1418 32.0843 12.2031 31.9263Z" fill="#FFB8B8"/>
<path d="M8.43823 21.196L8.17776 21.2456L8.02032 21.4429C8.02032 21.4429 7.76561 22.4372 8.05576 23.1321C8.34591 23.827 10.4437 30.8118 10.4437 30.8118L11.9505 30.8552L10.7767 25.1921L8.43823 21.196Z" fill="#3F3D56"/>
<path d="M14.3784 31.571C14.309 31.4979 14.2565 31.4106 14.2247 31.3151C14.1929 31.2197 14.1825 31.1185 14.1942 31.0186C14.2059 30.9187 14.2395 30.8226 14.2926 30.737C14.3457 30.6515 14.417 30.5785 14.5015 30.5233L13.9016 28.1528L15.1065 28.572L15.4914 30.7588C15.5751 30.9062 15.6016 31.079 15.5659 31.2446C15.5301 31.4101 15.4346 31.5568 15.2974 31.6569C15.1602 31.757 14.9909 31.8036 14.8215 31.7878C14.6521 31.7719 14.4945 31.6948 14.3784 31.571Z" fill="#FFB8B8"/>
<path d="M13.852 20.2173L14.1123 20.1667L14.3323 20.2914C14.3323 20.2914 14.9411 21.1195 14.9322 21.8719C14.9233 22.6243 15.5934 29.8839 15.5934 29.8839L14.2116 30.4834L13.1792 24.7931L13.852 20.2173Z" fill="#3F3D56"/>
</g>
</g>
<defs>
<clipPath id="clip0_1_2">
<rect width="57" height="55" fill="white" transform="translate(0.5)"/>
</clipPath>
</defs>
</svg>
