<svg width="262" height="68" viewBox="0 0 262 68" fill="none" xmlns="http://www.w3.org/2000/svg">
<path d="M7.88331 17.4653L23.6253 33.2073C24.8219 34.4039 25.1796 36.2034 24.5322 37.7667C23.8847 39.3301 22.3591 40.3492 20.6668 40.3492H9.10891V49.6582C9.10891 51.9688 7.2356 53.842 4.92516 53.842C2.61473 53.842 0.741418 51.9687 0.741418 49.6582V36.1651C0.741418 33.8545 2.61473 31.9813 4.92516 31.9813H10.5665L1.96739 23.3822C0.333065 21.7484 0.333065 19.0994 1.96739 17.4655C3.60119 15.8317 6.24944 15.8315 7.88331 17.4653ZM38.6571 0.497887C40.968 0.497887 42.8414 2.3712 42.8414 4.68163C42.8414 6.99206 40.9681 8.86538 38.6577 8.86538H15.026L23.6251 17.4645C25.2595 19.0983 25.2595 21.7473 23.6251 23.3812C22.8082 24.1982 21.7376 24.6065 20.6666 24.6065C19.5956 24.6065 18.525 24.1981 17.7081 23.3812L1.96606 7.63921C0.769462 6.44261 0.411748 4.64315 1.0592 3.07977C1.70665 1.51639 3.23223 0.497314 4.92459 0.497314L38.6571 0.497887ZM54.7481 14.619C57.0587 14.619 58.9319 16.4923 58.9319 18.8027C58.9319 21.1132 57.0585 22.9865 54.7481 22.9865C48.5481 22.9865 43.5038 28.0306 43.5038 34.2308V49.6588C43.5038 51.9694 41.6305 53.8425 39.3201 53.8425C37.0096 53.8425 35.1363 51.9692 35.1363 49.6588V18.8027C35.1363 16.4921 37.0096 14.619 39.3201 14.619C41.4293 14.619 43.1687 16.1811 43.4573 18.2102C46.6523 15.9515 50.5465 14.619 54.7481 14.619ZM78.3988 14.619C89.2133 14.619 98.0106 23.4163 98.0106 34.2308C98.0106 36.5413 96.1373 38.4145 93.8269 38.4145H67.9623C69.6254 42.5487 73.6769 45.4749 78.3996 45.4749C81.4031 45.4749 84.2267 44.3055 86.3502 42.1816C87.9846 40.5478 90.6331 40.5483 92.2673 42.1816C93.9016 43.8159 93.9011 46.4648 92.2673 48.0987C88.5625 51.8029 83.6377 53.8425 78.3992 53.8425C67.5847 53.8425 58.7874 45.0452 58.7874 34.2308C58.7874 23.4163 67.5844 14.619 78.3988 14.619ZM67.9616 30.047H88.8365C87.1734 25.9128 83.1219 22.9867 78.3992 22.9867C73.6765 22.9867 69.6244 25.9128 67.9616 30.047ZM121.33 14.619C132.144 14.619 140.942 23.4163 140.942 34.2308C140.942 36.5413 139.068 38.4145 136.758 38.4145H110.893C112.556 42.5487 116.608 45.4749 121.331 45.4749C124.334 45.4749 127.158 44.3055 129.281 42.1816C130.916 40.5478 133.564 40.5483 135.198 42.1816C136.833 43.8159 136.832 46.4648 135.198 48.0987C131.494 51.8029 126.569 53.8425 121.33 53.8425C110.516 53.8425 101.718 45.0452 101.718 34.2308C101.718 23.4163 110.515 14.619 121.33 14.619ZM110.893 30.047H131.767C130.104 25.9128 126.053 22.9867 121.33 22.9867C116.608 22.9867 112.555 25.9128 110.893 30.047ZM159.853 14.619C168.237 14.619 175.056 21.4399 175.056 29.823V49.6596C175.056 51.9701 173.183 53.8433 170.873 53.8433C168.562 53.8433 166.689 51.97 166.689 49.6596V29.823C166.689 26.0538 163.623 22.987 159.853 22.987C156.083 22.987 153.017 26.0532 153.017 29.823V49.6596C153.017 51.9701 151.144 53.8433 148.833 53.8433C146.523 53.8433 144.649 51.97 144.649 49.6596V18.8035C144.649 16.4929 146.523 14.6197 148.833 14.6197C150.331 14.6197 151.64 15.4089 152.38 16.5914C154.588 15.3389 157.138 14.619 159.853 14.619ZM213.856 45.4751C216.167 45.4751 218.04 47.3484 218.04 49.6588C218.04 51.9692 216.167 53.8425 213.856 53.8425H183C181.308 53.8425 179.783 52.8227 179.135 51.2595C178.487 49.6963 178.845 47.8967 180.042 46.7001L203.755 22.9865H183C180.69 22.9865 178.817 21.1132 178.817 18.8027C178.817 16.4923 180.69 14.619 183 14.619H213.856C215.548 14.619 217.073 15.6388 217.721 17.202C218.369 18.7652 218.011 20.5648 216.815 21.7614L193.101 45.4751H213.856ZM257.416 14.619C259.726 14.619 261.6 16.4923 261.6 18.8027V48.0242C261.6 59.0109 252.661 67.9503 241.674 67.9503C239.363 67.9503 237.49 66.077 237.49 63.7666C237.49 61.4561 239.363 59.5828 241.674 59.5828C247.27 59.5828 251.95 55.5835 253.007 50.2932C249.786 52.5284 245.881 53.8433 241.673 53.8433C230.686 53.8433 221.747 44.9043 221.747 33.9172V18.8029C221.747 16.4923 223.62 14.6192 225.931 14.6192C228.241 14.6192 230.114 16.4925 230.114 18.8029V33.9172C230.114 40.2903 235.299 45.4754 241.673 45.4754C248.046 45.4754 253.231 40.2905 253.231 33.9172V18.8029C253.231 16.4923 255.105 14.619 257.416 14.619Z" fill="white"/>
</svg>
