<svg width="599" height="299" viewBox="0 0 599 299" fill="none" xmlns="http://www.w3.org/2000/svg">
<rect width="573" height="273" fill="#896E2F"/>
<rect x="26" y="26" width="573" height="273" fill="#896E2F"/>
<rect x="26" y="26" width="547" height="247" fill="#F0C244"/>
<path d="M119.097 84.2056C114.252 80.7065 109.676 78.957 105.369 78.957C102.678 78.957 100.525 79.6748 98.9096 81.1103C97.2947 82.5458 96.4872 84.2505 96.4872 86.2243C96.4872 88.1084 97.3395 89.7234 99.0442 91.0692C100.839 92.415 103.62 93.985 107.388 95.7794C111.156 97.4841 114.207 99.0542 116.54 100.49C122.102 103.899 124.883 108.699 124.883 114.89C124.883 118.568 123.852 121.933 121.788 124.983C119.814 128.034 116.988 130.456 113.31 132.25C109.631 134.045 105.011 134.942 99.4479 134.942C93.8853 134.942 87.8292 133.551 81.2797 130.77L83.2984 118.12L84.7788 117.178C87.4704 119.51 90.3862 121.305 93.5264 122.561C96.7563 123.817 99.7171 124.445 102.409 124.445C105.19 124.445 107.388 123.727 109.003 122.292C110.618 120.856 111.425 119.107 111.425 117.043C111.425 114.979 110.528 113.275 108.734 111.929C106.94 110.583 104.113 109.058 100.255 107.353C96.4872 105.559 93.4816 103.944 91.2386 102.508C85.7657 99.1888 83.0292 94.4336 83.0292 88.243C83.0292 84.4748 84.0161 81.1103 85.99 78.1495C88.0535 75.0991 90.8797 72.6766 94.4685 70.8822C98.147 69.0878 102.498 68.2355 107.523 68.3252C112.547 68.415 117.796 69.5364 123.268 71.6897L121.115 83.3981L119.097 84.2056ZM202.615 80.4374L190.503 79.7645H186.331L185.928 113.409L186.466 134H172.873L173.546 114.621L173.008 79.7645H168.971L156.589 80.4374L155.647 79.2262L156.589 69.1327H202.615L203.423 70.2093L202.615 80.4374ZM272.701 108.161C278.084 116.505 283.288 124.041 288.312 130.77L288.043 132.25C283.646 133.865 279.205 134.807 274.719 135.077L273.239 133.865C268.394 125.521 264.446 118.299 261.396 112.198H251.706V113.409L252.245 134H238.517L239.325 114.621L238.517 69.1327L263.549 68.9981C270.368 68.9981 275.617 70.6579 279.295 73.9776C282.974 77.2972 284.813 82.0523 284.813 88.243C284.813 92.3701 283.736 96.1832 281.583 99.6822C279.43 103.181 276.469 106.007 272.701 108.161ZM270.413 89.5888C270.413 82.7701 266.645 79.271 259.108 79.0916L252.245 79.4953L251.975 101.432L261.934 101.97C267.676 99.9963 270.503 95.8692 270.413 89.5888ZM365.501 123.772L364.559 134H323.781L324.589 114.621L323.781 69.1327H364.963L365.77 70.2093L364.828 80.4374L349.217 79.8991H337.508L337.239 95.5103L348.544 95.7794L359.041 95.5103L359.849 96.4523L358.906 106.68L347.467 106.411L337.105 106.546L336.97 113.409L337.239 123.234L348.678 123.368L364.693 122.695L365.501 123.772ZM442.608 123.772L441.666 134H400.889L401.696 114.621L400.889 69.1327H442.07L442.878 70.2093L441.935 80.4374L426.324 79.8991H414.616L414.347 95.5103L425.651 95.7794L436.149 95.5103L436.956 96.4523L436.014 106.68L424.575 106.411L414.212 106.546L414.078 113.409L414.347 123.234L425.786 123.368L441.801 122.695L442.608 123.772ZM518.639 80.4374L506.527 79.7645H502.355L501.951 113.409L502.49 134H488.897L489.57 114.621L489.032 79.7645H484.994L472.613 80.4374L471.671 79.2262L472.613 69.1327H518.639L519.447 70.2093L518.639 80.4374Z" fill="black"/>
<path d="M119.097 84.2056L118.511 85.0163L118.957 85.3384L119.468 85.1341L119.097 84.2056ZM98.9096 81.1103L99.574 81.8577L98.9096 81.1103ZM99.0442 91.0692L98.4245 91.854L98.4343 91.8617L98.4442 91.8692L99.0442 91.0692ZM107.388 95.7794L106.958 96.6823L106.967 96.6865L106.976 96.6906L107.388 95.7794ZM116.54 100.49L116.015 101.341L116.017 101.342L116.54 100.49ZM121.788 124.983L120.96 124.423L120.954 124.431L120.949 124.44L121.788 124.983ZM113.31 132.25L112.871 131.352L113.31 132.25ZM81.2797 130.77L80.2922 130.613L80.1689 131.385L80.8888 131.691L81.2797 130.77ZM83.2984 118.12L82.7615 117.276L82.3818 117.518L82.3109 117.962L83.2984 118.12ZM84.7788 117.178L85.4337 116.422L84.8706 115.934L84.2419 116.334L84.7788 117.178ZM93.5264 122.561L93.155 123.489L93.164 123.493L93.5264 122.561ZM109.003 122.292L108.339 121.544L109.003 122.292ZM108.734 111.929L109.334 111.129V111.129L108.734 111.929ZM100.255 107.353L99.8255 108.256L99.8383 108.262L99.8512 108.268L100.255 107.353ZM91.2386 102.508L91.7776 101.666L91.7675 101.66L91.7572 101.653L91.2386 102.508ZM85.99 78.1495L85.1617 77.5892L85.1579 77.5948L85.99 78.1495ZM94.4685 70.8822L94.03 69.9834L94.0213 69.9878L94.4685 70.8822ZM107.523 68.3252L107.505 69.3251L107.523 68.3252ZM123.268 71.6897L124.252 71.8706L124.401 71.0607L123.635 70.7592L123.268 71.6897ZM121.115 83.3981L121.487 84.3266L121.999 84.1217L122.099 83.579L121.115 83.3981ZM119.682 83.3949C114.731 79.8193 109.954 77.957 105.369 77.957V79.957C109.398 79.957 113.772 81.5938 118.511 85.0163L119.682 83.3949ZM105.369 77.957C102.495 77.957 100.085 78.7274 98.2452 80.3629L99.574 81.8577C100.964 80.6221 102.86 79.957 105.369 79.957V77.957ZM98.2452 80.3629C96.4395 81.968 95.4872 83.9358 95.4872 86.2243H97.4872C97.4872 84.5651 98.1498 83.1236 99.574 81.8577L98.2452 80.3629ZM95.4872 86.2243C95.4872 88.4636 96.521 90.3513 98.4245 91.854L99.6638 90.2843C98.158 89.0955 97.4872 87.7533 97.4872 86.2243H95.4872ZM98.4442 91.8692C100.319 93.2753 103.172 94.8793 106.958 96.6823L107.818 94.8766C104.068 93.0908 101.358 91.5546 99.6442 90.2692L98.4442 91.8692ZM106.976 96.6906C110.723 98.3856 113.732 99.9361 116.015 101.341L117.064 99.6381C114.682 98.1723 111.59 96.5826 107.8 94.8683L106.976 96.6906ZM116.017 101.342C121.302 104.582 123.883 109.069 123.883 114.89H125.883C125.883 108.329 122.902 103.216 117.062 99.6371L116.017 101.342ZM123.883 114.89C123.883 118.368 122.912 121.538 120.96 124.423L122.616 125.543C124.792 122.328 125.883 118.768 125.883 114.89H123.883ZM120.949 124.44C119.086 127.319 116.407 129.627 112.871 131.352L113.748 133.149C117.569 131.285 120.543 128.748 122.628 125.526L120.949 124.44ZM112.871 131.352C109.369 133.06 104.91 133.942 99.4479 133.942V135.942C105.111 135.942 109.893 135.03 113.748 133.149L112.871 131.352ZM99.4479 133.942C94.0515 133.942 88.1296 132.593 81.6706 129.85L80.8888 131.691C87.5289 134.51 93.7192 135.942 99.4479 135.942V133.942ZM82.2672 130.928L84.2859 118.277L82.3109 117.962L80.2922 130.613L82.2672 130.928ZM83.8353 118.963L85.3156 118.021L84.2419 116.334L82.7615 117.276L83.8353 118.963ZM84.1238 117.933C86.8951 120.335 89.906 122.19 93.155 123.489L93.8978 121.632C90.8665 120.42 88.0456 118.686 85.4337 116.422L84.1238 117.933ZM93.164 123.493C96.4778 124.781 99.5631 125.445 102.409 125.445V123.445C99.871 123.445 97.0349 122.852 93.8889 121.629L93.164 123.493ZM102.409 125.445C105.363 125.445 107.822 124.68 109.667 123.039L108.339 121.544C106.954 122.775 105.017 123.445 102.409 123.445V125.445ZM109.667 123.039C111.484 121.424 112.425 119.407 112.425 117.043H110.425C110.425 118.806 109.752 120.288 108.339 121.544L109.667 123.039ZM112.425 117.043C112.425 114.634 111.355 112.645 109.334 111.129L108.134 112.729C109.702 113.905 110.425 115.325 110.425 117.043H112.425ZM109.334 111.129C107.447 109.714 104.538 108.152 100.66 106.439L99.8512 108.268C103.689 109.964 106.432 111.453 108.134 112.729L109.334 111.129ZM100.685 106.45C96.9362 104.665 93.9717 103.07 91.7776 101.666L90.6995 103.351C92.9914 104.817 96.0381 106.453 99.8255 108.256L100.685 106.45ZM91.7572 101.653C86.5708 98.5075 84.0292 94.0698 84.0292 88.243H82.0292C82.0292 94.7975 84.9606 99.87 90.72 103.363L91.7572 101.653ZM84.0292 88.243C84.0292 84.6599 84.9643 81.4908 86.822 78.7042L85.1579 77.5948C83.068 80.7298 82.0292 84.2896 82.0292 88.243H84.0292ZM86.8183 78.7098C88.7771 75.8142 91.4664 73.5013 94.9157 71.7767L94.0213 69.9878C90.293 71.8519 87.3299 74.384 85.1617 77.5892L86.8183 78.7098ZM94.9069 71.781C98.4147 70.0699 102.603 69.2375 107.505 69.3251L107.541 67.3254C102.394 67.2335 97.8793 68.1058 94.0301 69.9835L94.9069 71.781ZM107.505 69.3251C112.391 69.4123 117.522 70.5034 122.902 72.6203L123.635 70.7592C118.069 68.5695 112.703 67.4176 107.541 67.3254L107.505 69.3251ZM122.285 71.5088L120.132 83.2173L122.099 83.579L124.252 71.8706L122.285 71.5088ZM120.744 82.4697L118.725 83.2771L119.468 85.1341L121.487 84.3266L120.744 82.4697ZM202.615 80.4374L202.56 81.4358L203.535 81.49L203.612 80.5161L202.615 80.4374ZM190.503 79.7645L190.559 78.766L190.531 78.7645H190.503V79.7645ZM186.331 79.7645V78.7645H185.343L185.331 79.7525L186.331 79.7645ZM185.928 113.409L184.928 113.397L184.927 113.416L184.928 113.435L185.928 113.409ZM186.466 134V135H187.492L187.466 133.974L186.466 134ZM172.873 134L171.874 133.965L171.838 135H172.873V134ZM173.546 114.621L174.546 114.655L174.547 114.63L174.546 114.605L173.546 114.621ZM173.008 79.7645L174.008 79.749L173.993 78.7645H173.008V79.7645ZM168.971 79.7645V78.7645H168.943L168.916 78.766L168.971 79.7645ZM156.589 80.4374L155.8 81.0513L156.121 81.4643L156.644 81.4359L156.589 80.4374ZM155.647 79.2262L154.652 79.1332L154.615 79.5275L154.858 79.8401L155.647 79.2262ZM156.589 69.1327V68.1327H155.678L155.594 69.0398L156.589 69.1327ZM202.615 69.1327L203.415 68.5327L203.115 68.1327H202.615V69.1327ZM203.423 70.2093L204.42 70.288L204.45 69.9115L204.223 69.6093L203.423 70.2093ZM202.671 79.4389L190.559 78.766L190.448 80.7629L202.56 81.4358L202.671 79.4389ZM190.503 78.7645H186.331V80.7645H190.503V78.7645ZM185.331 79.7525L184.928 113.397L186.928 113.421L187.331 79.7765L185.331 79.7525ZM184.928 113.435L185.466 134.026L187.466 133.974L186.927 113.383L184.928 113.435ZM186.466 133H172.873V135H186.466V133ZM173.873 134.035L174.546 114.655L172.547 114.586L171.874 133.965L173.873 134.035ZM174.546 114.605L174.008 79.749L172.008 79.7799L172.546 114.636L174.546 114.605ZM173.008 78.7645H168.971V80.7645H173.008V78.7645ZM168.916 78.766L156.535 79.4389L156.644 81.4359L169.025 80.763L168.916 78.766ZM157.379 79.8234L156.437 78.6122L154.858 79.8401L155.8 81.0513L157.379 79.8234ZM156.643 79.3191L157.585 69.2256L155.594 69.0398L154.652 79.1332L156.643 79.3191ZM156.589 70.1327H202.615V68.1327H156.589V70.1327ZM201.815 69.7327L202.623 70.8093L204.223 69.6093L203.415 68.5327L201.815 69.7327ZM202.426 70.1306L201.619 80.3587L203.612 80.5161L204.42 70.288L202.426 70.1306ZM272.701 108.161L272.205 107.293L271.288 107.816L271.86 108.703L272.701 108.161ZM288.312 130.77L289.296 130.949L289.374 130.521L289.113 130.172L288.312 130.77ZM288.043 132.25L288.388 133.189L288.924 132.992L289.027 132.429L288.043 132.25ZM274.719 135.077L274.086 135.851L274.389 136.098L274.779 136.075L274.719 135.077ZM273.239 133.865L272.374 134.368L272.465 134.524L272.606 134.639L273.239 133.865ZM261.396 112.198L262.29 111.751L262.014 111.198H261.396V112.198ZM251.706 112.198V111.198H250.706V112.198H251.706ZM251.706 113.409H250.706V113.422L250.707 113.435L251.706 113.409ZM252.245 134V135H253.271L253.244 133.974L252.245 134ZM238.517 134L237.518 133.958L237.475 135H238.517V134ZM239.325 114.621L240.324 114.662L240.325 114.633L240.325 114.603L239.325 114.621ZM238.517 69.1327L238.512 68.1327L237.5 68.1382L237.518 69.1505L238.517 69.1327ZM263.549 68.9981V67.9981L263.544 67.9981L263.549 68.9981ZM279.295 73.9776L278.625 74.72L279.295 73.9776ZM270.413 89.5888H269.413V89.5959L269.413 89.6031L270.413 89.5888ZM259.108 79.0916L259.132 78.0919L259.091 78.0909L259.049 78.0933L259.108 79.0916ZM252.245 79.4953L252.186 78.497L251.256 78.5517L251.245 79.4831L252.245 79.4953ZM251.975 101.432L250.975 101.42L250.964 102.379L251.921 102.43L251.975 101.432ZM261.934 101.97L261.88 102.969L262.075 102.979L262.259 102.916L261.934 101.97ZM271.86 108.703C277.254 117.063 282.47 124.618 287.511 131.368L289.113 130.172C284.105 123.464 278.914 115.947 273.541 107.619L271.86 108.703ZM287.328 130.591L287.059 132.072L289.027 132.429L289.296 130.949L287.328 130.591ZM287.698 131.312C283.389 132.895 279.044 133.815 274.659 134.078L274.779 136.075C279.367 135.8 283.904 134.836 288.388 133.189L287.698 131.312ZM275.353 134.303L273.872 133.091L272.606 134.639L274.086 135.851L275.353 134.303ZM274.104 133.363C269.265 125.031 265.329 117.827 262.29 111.751L260.502 112.645C263.564 118.771 267.523 126.012 272.374 134.368L274.104 133.363ZM261.396 111.198H251.706V113.198H261.396V111.198ZM250.706 112.198V113.409H252.706V112.198H250.706ZM250.707 113.435L251.245 134.026L253.244 133.974L252.706 113.383L250.707 113.435ZM252.245 133H238.517V135H252.245V133ZM239.517 134.042L240.324 114.662L238.326 114.579L237.518 133.958L239.517 134.042ZM240.325 114.603L239.517 69.115L237.518 69.1505L238.325 114.638L240.325 114.603ZM238.523 70.1327L263.555 69.9981L263.544 67.9981L238.512 68.1327L238.523 70.1327ZM263.549 69.9981C270.214 69.9981 275.19 71.6197 278.625 74.72L279.965 73.2352C276.043 69.6962 270.522 67.9981 263.549 67.9981V69.9981ZM278.625 74.72C282.043 77.8045 283.813 82.2595 283.813 88.243H285.813C285.813 81.8451 283.904 76.7899 279.965 73.2352L278.625 74.72ZM283.813 88.243C283.813 92.1859 282.787 95.8174 280.731 99.1581L282.435 100.206C284.685 96.5489 285.813 92.5543 285.813 88.243H283.813ZM280.731 99.1581C278.671 102.506 275.836 105.218 272.205 107.293L273.197 109.029C277.102 106.797 280.189 103.856 282.435 100.206L280.731 99.1581ZM271.413 89.5888C271.413 85.9963 270.415 83.1126 268.267 81.1177C266.136 79.1392 263.033 78.1847 259.132 78.0919L259.084 80.0913C262.72 80.1779 265.269 81.0627 266.906 82.5833C268.526 84.0874 269.413 86.3626 269.413 89.5888H271.413ZM259.049 78.0933L252.186 78.497L252.303 80.4936L259.167 80.0899L259.049 78.0933ZM251.245 79.4831L250.975 101.42L252.975 101.444L253.245 79.5076L251.245 79.4831ZM251.921 102.43L261.88 102.969L261.988 100.972L252.029 100.433L251.921 102.43ZM262.259 102.916C265.289 101.874 267.627 100.236 269.186 97.9594C270.742 95.6863 271.46 92.8681 271.413 89.5745L269.413 89.6031C269.456 92.5899 268.805 94.9754 267.535 96.8294C266.268 98.6804 264.322 100.092 261.609 101.024L262.259 102.916ZM365.501 123.772L366.497 123.864L366.532 123.48L366.301 123.172L365.501 123.772ZM364.559 134V135H365.471L365.555 134.092L364.559 134ZM323.781 134L322.782 133.958L322.739 135H323.781V134ZM324.589 114.621L325.588 114.662L325.589 114.633L325.589 114.603L324.589 114.621ZM323.781 69.1327V68.1327H322.763L322.781 69.1505L323.781 69.1327ZM364.963 69.1327L365.763 68.5327L365.463 68.1327H364.963V69.1327ZM365.77 70.2093L366.766 70.3011L366.801 69.9175L366.57 69.6093L365.77 70.2093ZM364.828 80.4374L364.793 81.4368L365.737 81.4693L365.824 80.5291L364.828 80.4374ZM349.217 79.8991L349.251 78.8997L349.234 78.8991H349.217V79.8991ZM337.508 79.8991V78.8991H336.525L336.508 79.8818L337.508 79.8991ZM337.239 95.5103L336.239 95.493L336.222 96.4864L337.215 96.51L337.239 95.5103ZM348.544 95.7794L348.52 96.7792L348.545 96.7797L348.569 96.7791L348.544 95.7794ZM359.041 95.5103L359.8 94.8595L359.491 94.4984L359.015 94.5106L359.041 95.5103ZM359.849 96.4523L360.844 96.5441L360.883 96.1228L360.608 95.8015L359.849 96.4523ZM358.906 106.68L358.883 107.68L359.817 107.702L359.902 106.772L358.906 106.68ZM347.467 106.411L347.491 105.411L347.472 105.411L347.454 105.411L347.467 106.411ZM337.105 106.546L337.092 105.546L336.124 105.558L336.105 106.526L337.105 106.546ZM336.97 113.409L335.97 113.39L335.97 113.413L335.97 113.437L336.97 113.409ZM337.239 123.234L336.24 123.261L336.266 124.222L337.227 124.234L337.239 123.234ZM348.678 123.368L348.667 124.368L348.694 124.368L348.72 124.367L348.678 123.368ZM364.693 122.695L365.493 122.095L365.177 121.674L364.651 121.696L364.693 122.695ZM364.505 123.68L363.563 133.908L365.555 134.092L366.497 123.864L364.505 123.68ZM364.559 133H323.781V135H364.559V133ZM324.78 134.042L325.588 114.662L323.59 114.579L322.782 133.958L324.78 134.042ZM325.589 114.603L324.781 69.115L322.781 69.1505L323.589 114.638L325.589 114.603ZM323.781 70.1327H364.963V68.1327H323.781V70.1327ZM364.163 69.7327L364.97 70.8093L366.57 69.6093L365.763 68.5327L364.163 69.7327ZM364.774 70.1176L363.832 80.3457L365.824 80.5291L366.766 70.3011L364.774 70.1176ZM364.862 79.438L349.251 78.8997L349.182 80.8985L364.793 81.4368L364.862 79.438ZM349.217 78.8991H337.508V80.8991H349.217V78.8991ZM336.508 79.8818L336.239 95.493L338.239 95.5275L338.508 79.9163L336.508 79.8818ZM337.215 96.51L348.52 96.7792L348.568 94.7797L337.263 94.5106L337.215 96.51ZM348.569 96.7791L359.067 96.5099L359.015 94.5106L348.518 94.7798L348.569 96.7791ZM358.282 96.1611L359.089 97.1031L360.608 95.8015L359.8 94.8595L358.282 96.1611ZM358.853 96.3606L357.911 106.589L359.902 106.772L360.844 96.5441L358.853 96.3606ZM358.93 105.681L347.491 105.411L347.444 107.411L358.883 107.68L358.93 105.681ZM347.454 105.411L337.092 105.546L337.118 107.546L347.48 107.411L347.454 105.411ZM336.105 106.526L335.97 113.39L337.97 113.429L338.104 106.565L336.105 106.526ZM335.97 113.437L336.24 123.261L338.239 123.206L337.97 113.382L335.97 113.437ZM337.227 124.234L348.667 124.368L348.69 122.368L337.251 122.234L337.227 124.234ZM348.72 124.367L364.735 123.694L364.651 121.696L348.636 122.369L348.72 124.367ZM363.893 123.295L364.701 124.372L366.301 123.172L365.493 122.095L363.893 123.295ZM442.608 123.772L443.604 123.864L443.639 123.48L443.408 123.172L442.608 123.772ZM441.666 134V135H442.578L442.662 134.092L441.666 134ZM400.889 134L399.89 133.958L399.846 135H400.889V134ZM401.696 114.621L402.695 114.662L402.697 114.633L402.696 114.603L401.696 114.621ZM400.889 69.1327V68.1327H399.871L399.889 69.1505L400.889 69.1327ZM442.07 69.1327L442.87 68.5327L442.57 68.1327H442.07V69.1327ZM442.878 70.2093L443.873 70.3011L443.909 69.9175L443.678 69.6093L442.878 70.2093ZM441.935 80.4374L441.901 81.4368L442.845 81.4693L442.931 80.5291L441.935 80.4374ZM426.324 79.8991L426.359 78.8997L426.341 78.8991H426.324V79.8991ZM414.616 79.8991V78.8991H413.633L413.616 79.8818L414.616 79.8991ZM414.347 95.5103L413.347 95.493L413.33 96.4864L414.323 96.51L414.347 95.5103ZM425.651 95.7794L425.628 96.7792L425.652 96.7797L425.677 96.7791L425.651 95.7794ZM436.149 95.5103L436.908 94.8595L436.598 94.4984L436.123 94.5106L436.149 95.5103ZM436.956 96.4523L437.952 96.5441L437.991 96.1228L437.715 95.8015L436.956 96.4523ZM436.014 106.68L435.99 107.68L436.924 107.702L437.01 106.772L436.014 106.68ZM424.575 106.411L424.598 105.411L424.58 105.411L424.562 105.411L424.575 106.411ZM414.212 106.546L414.199 105.546L413.231 105.558L413.212 106.526L414.212 106.546ZM414.078 113.409L413.078 113.39L413.077 113.413L413.078 113.437L414.078 113.409ZM414.347 123.234L413.347 123.261L413.373 124.222L414.335 124.234L414.347 123.234ZM425.786 123.368L425.774 124.368L425.801 124.368L425.828 124.367L425.786 123.368ZM441.801 122.695L442.601 122.095L442.285 121.674L441.759 121.696L441.801 122.695ZM441.613 123.68L440.671 133.908L442.662 134.092L443.604 123.864L441.613 123.68ZM441.666 133H400.889V135H441.666V133ZM401.888 134.042L402.695 114.662L400.697 114.579L399.89 133.958L401.888 134.042ZM402.696 114.603L401.889 69.115L399.889 69.1505L400.696 114.638L402.696 114.603ZM400.889 70.1327H442.07V68.1327H400.889V70.1327ZM441.27 69.7327L442.078 70.8093L443.678 69.6093L442.87 68.5327L441.27 69.7327ZM441.882 70.1176L440.94 80.3457L442.931 80.5291L443.873 70.3011L441.882 70.1176ZM441.97 79.438L426.359 78.8997L426.29 80.8985L441.901 81.4368L441.97 79.438ZM426.324 78.8991H414.616V80.8991H426.324V78.8991ZM413.616 79.8818L413.347 95.493L415.347 95.5275L415.616 79.9163L413.616 79.8818ZM414.323 96.51L425.628 96.7792L425.675 94.7797L414.37 94.5106L414.323 96.51ZM425.677 96.7791L436.174 96.5099L436.123 94.5106L425.626 94.7798L425.677 96.7791ZM435.389 96.1611L436.197 97.1031L437.715 95.8015L436.908 94.8595L435.389 96.1611ZM435.96 96.3606L435.018 106.589L437.01 106.772L437.952 96.5441L435.96 96.3606ZM436.038 105.681L424.598 105.411L424.551 107.411L435.99 107.68L436.038 105.681ZM424.562 105.411L414.199 105.546L414.225 107.546L424.588 107.411L424.562 105.411ZM413.212 106.526L413.078 113.39L415.077 113.429L415.212 106.565L413.212 106.526ZM413.078 113.437L413.347 123.261L415.346 123.206L415.077 113.382L413.078 113.437ZM414.335 124.234L425.774 124.368L425.798 122.368L414.358 122.234L414.335 124.234ZM425.828 124.367L441.843 123.694L441.759 121.696L425.744 122.369L425.828 124.367ZM441.001 123.295L441.808 124.372L443.408 123.172L442.601 122.095L441.001 123.295ZM518.639 80.4374L518.584 81.4358L519.559 81.49L519.636 80.5161L518.639 80.4374ZM506.527 79.7645L506.583 78.766L506.555 78.7645H506.527V79.7645ZM502.355 79.7645V78.7645H501.367L501.355 79.7525L502.355 79.7645ZM501.951 113.409L500.951 113.397L500.951 113.416L500.952 113.435L501.951 113.409ZM502.49 134V135H503.516L503.489 133.974L502.49 134ZM488.897 134L487.898 133.965L487.862 135H488.897V134ZM489.57 114.621L490.569 114.655L490.57 114.63L490.57 114.605L489.57 114.621ZM489.032 79.7645L490.032 79.749L490.016 78.7645H489.032V79.7645ZM484.994 79.7645V78.7645H484.967L484.94 78.766L484.994 79.7645ZM472.613 80.4374L471.824 81.0513L472.145 81.4643L472.667 81.4359L472.613 80.4374ZM471.671 79.2262L470.675 79.1332L470.639 79.5275L470.882 79.8401L471.671 79.2262ZM472.613 69.1327V68.1327H471.702L471.617 69.0398L472.613 69.1327ZM518.639 69.1327L519.439 68.5327L519.139 68.1327H518.639V69.1327ZM519.447 70.2093L520.444 70.288L520.473 69.9115L520.247 69.6093L519.447 70.2093ZM518.695 79.4389L506.583 78.766L506.472 80.7629L518.584 81.4358L518.695 79.4389ZM506.527 78.7645H502.355V80.7645H506.527V78.7645ZM501.355 79.7525L500.951 113.397L502.951 113.421L503.355 79.7765L501.355 79.7525ZM500.952 113.435L501.49 134.026L503.489 133.974L502.951 113.383L500.952 113.435ZM502.49 133H488.897V135H502.49V133ZM489.897 134.035L490.569 114.655L488.571 114.586L487.898 133.965L489.897 134.035ZM490.57 114.605L490.032 79.749L488.032 79.7799L488.57 114.636L490.57 114.605ZM489.032 78.7645H484.994V80.7645H489.032V78.7645ZM484.94 78.766L472.559 79.4389L472.667 81.4359L485.049 80.763L484.94 78.766ZM473.402 79.8234L472.46 78.6122L470.882 79.8401L471.824 81.0513L473.402 79.8234ZM472.667 79.3191L473.609 69.2256L471.617 69.0398L470.675 79.1332L472.667 79.3191ZM472.613 70.1327H518.639V68.1327H472.613V70.1327ZM517.839 69.7327L518.647 70.8093L520.247 69.6093L519.439 68.5327L517.839 69.7327ZM518.45 70.1306L517.642 80.3587L519.636 80.5161L520.444 70.288L518.45 70.1306Z" fill="black"/>
<path d="M139.109 232.3C135.643 232.3 131.786 231.78 127.539 230.74C123.293 229.613 119.089 226.927 114.929 222.68L109.469 217.22C106.869 214.62 104.356 212.497 101.929 210.85C99.5894 209.203 96.9028 207.99 93.8694 207.21C90.8361 206.343 87.0228 205.91 82.4294 205.91H81.3895V231H56.0394V164.96L54.7394 154.43H114.929C120.476 154.43 124.939 155.123 128.319 156.51C131.786 157.81 134.429 159.587 136.249 161.84C138.156 164.007 139.456 166.477 140.149 169.25C140.843 172.023 141.189 174.84 141.189 177.7V180.17C141.189 185.37 139.846 190.05 137.159 194.21C134.559 198.283 130.399 201.187 124.679 202.92C126.846 204.22 128.883 205.563 130.789 206.95C132.783 208.25 135.036 209.637 137.549 211.11C140.409 212.757 143.053 213.97 145.479 214.75C147.993 215.443 150.073 215.877 151.719 216.05C153.366 216.223 154.319 216.31 154.579 216.31L150.679 231C149.639 231.26 148.036 231.52 145.869 231.78C143.789 232.127 141.536 232.3 139.109 232.3ZM96.4694 188.62C98.6361 188.62 100.716 188.577 102.709 188.49C104.789 188.403 106.653 188.273 108.299 188.1C111.246 187.753 113.239 186.843 114.279 185.37C115.406 183.81 115.969 181.947 115.969 179.78V178.35C115.969 176.443 115.406 174.97 114.279 173.93C113.239 172.89 111.289 172.37 108.429 172.37H81.3895V188.1C83.5561 188.187 85.9394 188.317 88.5394 188.49C91.1394 188.577 93.7828 188.62 96.4694 188.62ZM183.621 231L221.711 154.56H255.511L293.471 231H265.521L259.151 217.09H218.071L210.921 231H183.621ZM225.221 199.15H251.871L239.261 171.46H237.961L225.221 199.15ZM352.758 231C343.485 231 336.768 228.963 332.608 224.89C328.448 220.817 326.368 214.23 326.368 205.13V181.34C326.368 171.98 328.665 165.177 333.258 160.93C337.852 156.597 344.352 154.43 352.758 154.43H396.178C402.158 154.43 406.708 154.777 409.828 155.47C413.035 156.077 414.638 156.727 414.638 157.42L410.608 173.67C408.442 173.41 404.195 173.15 397.868 172.89C391.628 172.543 383.742 172.37 374.208 172.37H362.118C358.045 172.37 355.272 173.15 353.798 174.71C352.412 176.183 351.718 178.48 351.718 181.6V203.83C351.718 206.777 352.325 209.073 353.538 210.72C354.838 212.28 357.698 213.06 362.118 213.06H372.648C376.635 213.06 380.232 213.06 383.438 213.06C386.645 212.973 389.462 212.887 391.888 212.8V202.92L386.688 203.05L369.658 204.35V186.41H416.718V225.54L418.018 228.27C418.018 228.963 416.198 229.613 412.558 230.22C408.918 230.74 402.765 231 394.098 231H352.758ZM462.863 231V154.56H546.323V172.24H488.213V183.03H531.243V201.1H488.213V213.19H544.243L552.043 229.57C552.043 229.917 550.873 230.263 548.533 230.61C546.193 230.87 542.163 231 536.443 231H462.863Z" fill="black"/>
</svg>
