<svg width="473" height="139" viewBox="0 0 473 139" fill="none" xmlns="http://www.w3.org/2000/svg">
<g clip-path="url(#clip0_1_3)">
<path d="M0.962063 90.7941C6.49833 71.0193 32.7939 59.6567 42.8802 38.9156C47.7601 28.8774 45.4793 10.3425 37.1484 2.91997C36.7058 2.52382 34.8709 -1.03663 36.7389 0.297705C55.302 13.8798 70.3941 31.8113 63.4125 49.1179C53.724 73.1377 28.7694 85.1335 28.9517 109.591C29.0296 119.765 36.5251 127.927 46.0561 136.46L46.4456 138.244C21.6982 131.181 -5.48752 113.829 0.962063 90.7941ZM63.4207 117.65C77.7968 104.719 86.5736 96.8641 82.8623 81.888C87.3759 88.815 91.5679 98.4222 87.9875 105.909C84.7851 112.601 81.5976 117.264 69.935 123.788C63.7539 127.244 59.1078 130.987 55.2257 137.251C55.0235 130.695 56.2882 124.066 63.4207 117.65ZM47.4617 95.3889C52.9599 85.2744 60.9858 78.0358 68.7647 67.6595C74.2861 60.2949 79.3433 48.0637 74.0573 38.0786L74.3988 37.6012C82.4993 46.6515 82.8375 61.4071 80.2964 72.3388C76.3033 89.5261 62.0715 96.4713 53.8019 109.039C50.563 113.962 48.7215 119.99 49.6398 126.307C40.4585 118.814 42.5404 104.444 47.4617 95.3889Z" fill="#FCFCFC"/>
<path d="M114.859 73.3725H125.853C125.853 74.8716 126.353 75.871 127.185 76.5373C128.018 77.2035 129.295 77.3701 130.683 77.3701C132.904 77.3701 136.235 77.037 136.235 74.3164C136.235 72.3731 133.737 71.7068 131.572 71.3737L124.187 70.2077C118.857 69.3749 115.748 66.8209 115.748 62.4901C115.748 54.5505 124.853 53.1624 130.961 53.1624C143.065 53.1624 146.34 56.6603 146.563 62.4901H135.902C135.736 60.9911 135.181 60.1027 134.514 59.6585C133.737 59.1588 132.071 58.9367 130.739 58.9367C129.018 58.9367 126.741 59.6585 126.741 61.3797C126.741 63.3785 129.351 63.8782 131.627 64.2669L138.845 65.4328C144.952 66.4322 147.229 69.1528 147.229 73.7611C147.229 82.256 136.458 83.1444 130.295 83.1444C116.359 83.1444 115.248 77.4811 114.859 73.3725ZM150.449 60.9911V54.2174H157.278V48.5541L167.939 44.6675V54.2174H176.933V60.9911H167.939V69.708C167.939 73.5946 168.438 75.6489 172.714 75.6489C173.713 75.6489 175.268 75.5379 176.933 75.3158V82.0895C175.934 82.256 173.102 82.7557 169.771 82.7557C161.609 82.7557 157.278 79.591 157.278 72.8173V60.9911H150.449ZM182.874 82.0895V59.9361C182.874 58.1594 182.819 56.1051 182.652 54.2174H192.979C193.146 56.2161 193.201 58.2149 193.201 60.2137H193.312C195.922 54.8836 198.809 53.8287 205.805 53.8287V62.9343C205.027 62.8233 204.195 62.7122 202.973 62.7122C197.254 62.7122 193.534 65.9325 193.534 71.5403V82.0895H182.874ZM220.796 64.9886H234.565C234.454 60.4358 231.456 58.9367 227.68 58.9367C222.739 58.9367 221.295 62.1015 220.796 64.9886ZM245.892 70.7629H220.629C220.851 75.0937 223.405 77.3701 227.903 77.3701C232.566 77.3701 233.399 75.4823 233.954 73.5946H245.281C243.06 82.4226 235.454 83.1444 227.736 83.1444C218.075 83.1444 209.636 79.591 209.636 68.5976C209.636 57.8263 218.02 53.1624 227.569 53.1624C241.172 53.1624 245.836 59.8806 245.892 70.7629ZM261.938 64.9886H275.707C275.596 60.4358 272.598 58.9367 268.822 58.9367C263.881 58.9367 262.437 62.1015 261.938 64.9886ZM287.034 70.7629H261.771C261.993 75.0937 264.547 77.3701 269.044 77.3701C273.708 77.3701 274.541 75.4823 275.096 73.5946H286.423C284.202 82.4226 276.595 83.1444 268.878 83.1444C259.217 83.1444 250.778 79.591 250.778 68.5976C250.778 57.8263 259.161 53.1624 268.711 53.1624C282.314 53.1624 286.978 59.8806 287.034 70.7629ZM290.365 60.9911V54.2174H297.194V48.5541L307.854 44.6675V54.2174H316.849V60.9911H307.854V69.708C307.854 73.5946 308.354 75.6489 312.629 75.6489C313.629 75.6489 315.183 75.5379 316.849 75.3158V82.0895C315.85 82.256 313.018 82.7557 309.687 82.7557C301.525 82.7557 297.194 79.591 297.194 72.8173V60.9911H290.365ZM322.79 82.0895V59.9361C322.79 58.1594 322.734 56.1051 322.568 54.2174H332.895C333.061 56.2161 333.117 58.2149 333.117 60.2137H333.228C335.838 54.8836 338.725 53.8287 345.721 53.8287V62.9343C344.943 62.8233 344.11 62.7122 342.889 62.7122C337.17 62.7122 333.45 65.9325 333.45 71.5403V82.0895H322.79ZM373.315 69.9301H368.873C361.711 69.9301 360.212 71.8179 360.212 74.1498C360.212 75.871 361.822 77.037 364.82 77.037C371.76 77.037 373.315 72.8173 373.315 69.9301ZM361.822 62.4346H350.829C351.384 55.1612 359.546 53.1624 366.874 53.1624C377.757 53.1624 383.975 55.772 383.975 65.2107V75.871C383.975 77.9253 384.031 80.0351 384.197 82.0895H373.87C373.759 81.1456 373.648 79.0913 373.648 77.5922H373.537C370.983 81.8119 366.208 83.1444 361.489 83.1444C353.549 83.1444 348.885 79.9241 348.885 74.0943C348.885 67.4871 355.104 64.4889 365.542 64.4889H373.315C373.315 60.0472 371.261 58.9367 367.041 58.9367C363.099 58.9367 361.877 60.4914 361.822 62.4346ZM401.964 67.4316C401.964 71.7068 404.963 74.9271 410.015 74.9271C415.345 74.9271 418.344 71.8179 418.344 67.4316C418.344 62.7122 414.624 59.9361 409.904 59.9361C404.741 59.9361 401.964 63.1009 401.964 67.4316ZM418.344 78.2029V76.0376H418.232C415.734 80.0351 410.515 81.7008 405.795 81.7008C396.856 81.7008 390.638 75.4268 390.638 67.4316C390.638 58.6036 396.912 53.1624 406.018 53.1624C411.57 53.1624 415.789 55.1057 418.566 58.6591H418.677C418.677 56.9379 418.732 55.4388 418.899 54.2174H429.226C429.115 55.3278 429.004 57.049 429.004 58.6591V77.8698C429.004 90.973 420.731 93.8046 408.96 93.8046C393.747 93.8046 392.304 88.6411 391.859 83.9217H403.186C403.519 85.5874 404.296 86.5312 405.407 87.0309C406.573 87.5862 407.961 87.6972 409.46 87.6972C415.401 87.6972 418.344 85.6429 418.344 78.2029ZM447.104 64.9886H460.873C460.762 60.4358 457.764 58.9367 453.989 58.9367C449.047 58.9367 447.604 62.1015 447.104 64.9886ZM472.2 70.7629H446.937C447.159 75.0937 449.714 77.3701 454.211 77.3701C458.875 77.3701 459.708 75.4823 460.263 73.5946H471.589C469.368 82.4226 461.762 83.1444 454.044 83.1444C444.383 83.1444 435.944 79.591 435.944 68.5976C435.944 57.8263 444.328 53.1624 453.878 53.1624C467.481 53.1624 472.144 59.8806 472.2 70.7629Z" fill="#FCFCFC"/>
</g>
<defs>
<clipPath id="clip0_1_3">
<rect width="472.2" height="138.244" fill="white"/>
</clipPath>
</defs>
</svg>
